<?xml version="1.0" encoding="utf-8"?>
<svg width="450.33" height="230" viewBox="0 0 450 230 " preserveAspectRatio="xMinYMin meet" xmlns="http://www.w3.org/2000/svg">
  <line fill="none" stroke-width="1.33333" stroke-linejoin="round" stroke="#000000" stroke-opacity="1" x1="155.843" y1="17.209" x2="62.948" y2="213.272"/>
  <line fill="none" stroke-width="1.33333" stroke-linejoin="round" stroke="#000000" stroke-opacity="1" x1="155.843" y1="136.557" x2="169.456" y2="213.272"/>
  <line fill="none" stroke-width="1.33333" stroke-linejoin="round" stroke="#000000" stroke-opacity="1" x1="155.843" y1="17.209" x2="155.843" y2="136.557"/>
  <path fill="#000000" fill-opacity="1" stroke-linejoin="round" d="M 191.74 212.627 L 203.538 212.627 L 203.538 213.917 L 191.74 213.917 L 191.74 212.627 Z M 214.025 212.627 L 225.823 212.627 L 225.823 213.917 L 214.025 213.917 L 214.025 212.627 Z M 236.31 212.627 L 248.107 212.627 L 248.107 213.917 L 236.31 213.917 L 236.31 212.627 Z M 169.456 212.627 L 181.254 212.627 L 181.254 213.917 L 169.456 213.917 L 169.456 212.627 Z"/>
  <line fill="none" stroke-width="1.33333" stroke-linejoin="round" stroke="#000000" stroke-opacity="1" x1="155.843" y1="136.557" x2="220.448" y2="153.564"/>
  <line fill="none" stroke-width="1.33333" stroke-linejoin="round" stroke="#000000" stroke-opacity="1" x1="155.843" y1="17.209" x2="220.448" y2="153.564"/>
  <line fill="none" stroke-width="1.33333" stroke-linejoin="round" stroke="#000000" stroke-opacity="1" x1="109.396" y1="115.24" x2="155.843" y2="136.557"/>
  <line fill="none" stroke-width="1.33333" stroke-linejoin="round" stroke="#000000" stroke-opacity="1" x1="220.448" y1="153.564" x2="169.456" y2="213.272"/>
  <line fill="none" stroke-width="1.33333" stroke-linejoin="round" stroke="#000000" stroke-opacity="1" x1="62.948" y1="213.272" x2="169.456" y2="213.272"/>
  <path fill="#000000" fill-opacity="1" stroke-linejoin="round" d="M 230.459 173.168 L 235.446 183.69 L 234.257 184.236 L 229.272 173.713 L 230.459 173.168 Z M 239.877 193.045 L 244.863 203.568 L 243.675 204.113 L 238.689 193.59 L 239.877 193.045 Z M 249.295 212.922 L 249.331 213 L 248.144 213.544 L 248.106 213.467 L 249.295 212.922 Z M 221.042 153.291 L 226.027 163.813 L 224.84 164.359 L 219.853 153.835 L 221.042 153.291 Z"/>
  <path fill="#000000" fill-opacity="1" stroke-linejoin="round" d="M 139.193 151.148 L 130.155 158.612 L 129.313 157.624 L 138.351 150.161 L 139.193 151.148 Z M 122.122 165.246 L 113.084 172.709 L 112.242 171.721 L 121.28 164.258 L 122.122 165.246 Z M 105.051 179.344 L 96.014 186.807 L 95.172 185.819 L 104.209 178.355 L 105.051 179.344 Z M 87.981 193.442 L 78.943 200.905 L 78.1 199.917 L 87.138 192.453 L 87.981 193.442 Z M 70.91 207.539 L 63.369 213.766 L 62.526 212.778 L 70.067 206.551 L 70.91 207.539 Z M 156.264 137.051 L 147.227 144.515 L 146.384 143.526 L 155.421 136.063 L 156.264 137.051 Z"/>
  <path fill="#000000" fill-opacity="1" stroke-linejoin="round" d="M 173.335 150.161 L 182.373 157.624 L 181.53 158.612 L 172.492 151.148 L 173.335 150.161 Z M 190.406 164.258 L 199.443 171.721 L 198.601 172.709 L 189.564 165.246 L 190.406 164.258 Z M 207.476 178.355 L 216.514 185.819 L 215.672 186.807 L 206.634 179.344 L 207.476 178.355 Z M 224.548 192.453 L 233.586 199.917 L 232.743 200.905 L 223.705 193.442 L 224.548 192.453 Z M 241.619 206.551 L 249.159 212.778 L 248.316 213.766 L 240.776 207.539 L 241.619 206.551 Z M 156.264 136.063 L 165.302 143.526 L 164.459 144.515 L 155.421 137.051 L 156.264 136.063 Z"/>
  <path fill="#000000" fill-opacity="1" stroke-width="1.33333" stroke-linejoin="round" d="M 154.734 12.956 L 158.798 6.347 C 158.798 6.231 158.857 6.173 158.975 6.173 C 159.092 6.173 159.151 6.231 159.151 6.347 C 159.269 6.347 159.328 6.405 159.328 6.521 L 160.035 13.477 C 160.035 13.593 160.035 13.71 160.035 13.826 L 160.035 13.826 C 160.153 13.826 160.388 13.826 160.742 13.826 C 160.86 13.826 160.919 13.884 160.919 13.999 C 160.919 14.115 160.86 14.173 160.742 14.173 L 159.505 14.173 L 158.091 14.173 L 158.091 14.173 C 157.973 14.173 157.914 14.115 157.914 13.999 C 157.914 13.884 157.973 13.826 158.091 13.826 C 158.68 13.826 158.975 13.71 158.975 13.477 C 158.975 13.477 158.916 12.84 158.798 11.564 L 155.971 11.564 L 155.087 12.956 C 154.97 13.188 154.911 13.362 154.911 13.477 C 154.911 13.71 155.087 13.826 155.441 13.826 C 155.559 13.826 155.618 13.884 155.618 13.999 C 155.618 14.115 155.559 14.173 155.441 14.173 L 154.38 14.173 L 153.32 14.173 L 153.32 14.173 C 153.202 14.173 153.143 14.115 153.143 13.999 C 153.143 13.884 153.202 13.826 153.32 13.826 L 153.497 13.826 C 153.968 13.826 154.322 13.651 154.557 13.304 C 154.675 13.188 154.734 13.072 154.734 12.956 Z M 156.148 11.217 L 158.798 11.217 L 158.444 7.564 L 156.148 11.217 Z"/>
  <path fill="#000000" fill-opacity="1" stroke-width="1.33333" stroke-linejoin="round" d="M 100.393 115.819 L 101.983 109.906 C 101.983 109.79 101.983 109.674 101.983 109.558 C 101.983 109.558 101.924 109.5 101.806 109.385 L 101.806 109.385 C 101.571 109.385 101.394 109.385 101.276 109.385 C 101.041 109.385 100.923 109.385 100.923 109.385 C 100.923 109.152 100.982 109.036 101.1 109.036 L 101.276 109.036 L 104.987 109.036 C 106.047 109.036 106.813 109.443 107.284 110.253 C 107.52 110.718 107.638 111.239 107.638 111.819 C 107.638 112.978 107.284 114.022 106.577 114.949 C 105.87 115.761 105.046 116.282 104.103 116.515 C 103.75 116.631 103.455 116.689 103.219 116.689 L 99.332 116.689 C 99.214 116.689 99.155 116.631 99.155 116.515 C 99.155 116.399 99.214 116.341 99.332 116.341 L 99.332 116.341 C 99.921 116.341 100.216 116.282 100.216 116.166 C 100.334 116.166 100.393 116.05 100.393 115.819 Z M 102.867 109.906 L 101.276 115.993 C 101.276 116.108 101.276 116.166 101.276 116.166 C 101.276 116.282 101.276 116.341 101.276 116.341 L 101.453 116.341 C 101.453 116.341 101.512 116.341 101.63 116.341 L 102.867 116.341 C 103.808 116.341 104.633 115.993 105.34 115.297 C 105.458 115.181 105.517 115.123 105.517 115.123 C 106.106 114.311 106.518 113.268 106.754 111.993 C 106.754 111.761 106.754 111.587 106.754 111.471 C 106.754 110.544 106.342 109.906 105.517 109.558 C 105.281 109.443 104.987 109.385 104.633 109.385 L 103.396 109.385 C 103.16 109.385 103.043 109.443 103.043 109.558 L 103.043 109.558 C 102.926 109.558 102.867 109.674 102.867 109.906 Z"/>
  <path fill="#000000" fill-opacity="1" stroke-width="1.33333" stroke-linejoin="round" d="M 153.952 140.523 L 153.952 140.523 C 153.952 141.683 153.54 142.726 152.716 143.654 C 152.009 144.581 151.126 145.219 150.065 145.566 C 149.712 145.566 149.417 145.566 149.181 145.566 C 148.239 145.566 147.473 145.276 146.885 144.697 C 146.414 144.117 146.178 143.421 146.178 142.611 C 146.178 141.566 146.59 140.523 147.414 139.479 C 148.121 138.552 149.005 137.973 150.065 137.741 C 150.419 137.625 150.772 137.566 151.126 137.566 C 152.068 137.566 152.834 137.915 153.422 138.61 C 153.776 139.074 153.952 139.712 153.952 140.523 Z M 149.181 145.392 L 149.181 145.392 C 149.888 145.392 150.536 145.045 151.126 144.349 C 151.361 144.233 151.538 144.117 151.656 144.001 C 152.363 143.074 152.775 141.973 152.893 140.697 C 153.01 140.465 153.069 140.291 153.069 140.175 C 153.069 139.132 152.716 138.436 152.009 138.088 C 151.656 137.857 151.361 137.741 151.126 137.741 C 150.419 137.741 149.712 138.088 149.005 138.784 C 148.769 139.016 148.533 139.248 148.298 139.479 C 147.709 140.407 147.355 141.45 147.238 142.611 C 147.238 142.726 147.238 142.842 147.238 142.958 C 147.238 143.886 147.532 144.581 148.121 145.045 C 148.475 145.276 148.828 145.392 149.181 145.392 Z"/>
  <path fill="#000000" fill-opacity="1" stroke-width="1.33333" stroke-linejoin="round" d="M 228.168 150.527 L 227.462 153.31 C 227.462 153.426 227.462 153.542 227.462 153.657 C 227.462 153.774 227.521 153.832 227.639 153.832 C 227.639 153.832 227.698 153.832 227.815 153.832 C 228.05 153.832 228.286 153.832 228.522 153.832 C 228.639 153.832 228.698 153.832 228.698 153.832 L 228.875 154.006 C 228.875 154.122 228.757 154.18 228.522 154.18 L 226.932 154.18 L 225.341 154.18 L 225.341 154.18 C 225.224 154.18 225.165 154.122 225.165 154.006 C 225.165 153.89 225.224 153.832 225.341 153.832 L 225.518 153.832 C 225.989 153.832 226.284 153.774 226.402 153.657 C 226.52 153.657 226.579 153.542 226.579 153.31 L 227.991 147.397 C 228.109 147.281 228.168 147.223 228.168 147.223 C 228.168 147.107 227.991 146.992 227.639 146.876 L 227.462 146.876 C 227.227 146.876 227.109 146.876 227.109 146.876 C 227.109 146.76 227.168 146.643 227.286 146.527 L 227.462 146.527 L 232.94 146.527 C 233.176 146.527 233.294 146.585 233.294 146.701 L 233.294 146.701 C 233.294 146.701 233.294 146.76 233.294 146.876 L 233.117 148.789 C 232.999 149.021 232.94 149.136 232.94 149.136 C 232.822 149.136 232.763 149.078 232.763 148.963 C 232.763 148.963 232.763 148.905 232.763 148.789 C 232.763 148.556 232.763 148.383 232.763 148.267 C 232.763 147.687 232.646 147.339 232.41 147.223 L 232.41 147.223 C 232.174 146.992 231.762 146.876 231.173 146.876 L 229.582 146.876 C 229.346 146.876 229.229 146.934 229.229 147.05 L 229.229 147.05 C 229.111 147.05 229.052 147.107 229.052 147.223 L 229.052 147.223 C 229.052 147.223 229.052 147.281 229.052 147.397 L 228.345 150.18 L 229.405 150.18 C 229.877 150.18 230.23 150.064 230.466 149.832 L 230.466 149.832 C 230.584 149.715 230.701 149.484 230.819 149.136 C 230.819 149.021 230.878 148.963 230.996 148.963 C 231.114 148.963 231.173 148.963 231.173 148.963 C 231.173 149.078 231.173 149.136 231.173 149.136 L 230.466 151.571 C 230.348 151.803 230.289 151.919 230.289 151.919 C 230.171 151.919 230.112 151.861 230.112 151.745 C 230.112 151.745 230.112 151.686 230.112 151.571 C 230.23 151.339 230.289 151.165 230.289 151.049 C 230.289 150.818 230.23 150.701 230.112 150.701 L 230.112 150.701 C 229.877 150.585 229.641 150.527 229.405 150.527 L 228.168 150.527 Z"/>
  <path fill="#000000" fill-opacity="1" stroke-width="1.33333" stroke-linejoin="round" d="M 58.132 223.021 L 59.723 217.108 C 59.723 216.992 59.723 216.876 59.723 216.76 C 59.723 216.76 59.664 216.702 59.546 216.585 L 59.546 216.585 C 59.546 216.585 59.487 216.585 59.37 216.585 C 59.252 216.585 59.134 216.585 59.016 216.585 C 58.781 216.585 58.663 216.585 58.663 216.585 C 58.663 216.354 58.722 216.238 58.839 216.238 L 59.016 216.238 L 62.727 216.238 C 63.669 216.238 64.317 216.527 64.671 217.108 C 64.789 217.339 64.847 217.571 64.847 217.803 C 64.847 218.383 64.553 218.905 63.964 219.368 C 63.964 219.368 63.905 219.368 63.787 219.368 C 63.434 219.6 63.021 219.774 62.55 219.89 C 63.375 220.006 63.905 220.296 64.14 220.76 C 64.258 220.992 64.317 221.223 64.317 221.455 C 64.317 222.035 64.023 222.556 63.434 223.021 L 63.434 223.021 C 62.844 223.6 62.079 223.89 61.136 223.89 L 57.072 223.89 C 56.954 223.89 56.895 223.832 56.895 223.716 C 56.895 223.6 56.954 223.542 57.072 223.542 L 57.072 223.542 C 57.661 223.542 57.956 223.484 57.956 223.368 C 58.074 223.368 58.132 223.252 58.132 223.021 Z M 59.899 219.89 L 61.489 219.89 C 62.314 219.89 62.962 219.6 63.434 219.021 C 63.787 218.673 63.964 218.267 63.964 217.803 C 63.964 217.223 63.728 216.876 63.257 216.76 C 63.021 216.643 62.844 216.585 62.727 216.585 L 61.136 216.585 C 60.9 216.585 60.783 216.643 60.783 216.76 L 60.606 216.76 L 60.606 216.76 C 60.606 216.76 60.606 216.876 60.606 217.108 M 59.37 223.542 L 60.959 223.542 C 61.666 223.542 62.255 223.252 62.727 222.673 C 63.08 222.325 63.257 221.861 63.257 221.281 C 63.257 220.818 63.08 220.469 62.727 220.238 C 62.491 220.122 62.255 220.064 62.02 220.064 L 59.899 220.064 L 59.016 223.194 C 59.016 223.31 59.016 223.368 59.016 223.368 C 59.016 223.484 59.016 223.542 59.016 223.542 L 59.193 223.542 C 59.193 223.542 59.252 223.542 59.37 223.542 Z"/>
  <path fill="#000000" fill-opacity="1" stroke-width="1.33333" stroke-linejoin="round" d="M 170.86 222.453 L 169.801 224.887 C 169.801 225.003 169.801 225.061 169.801 225.061 L 169.624 225.061 C 169.624 225.061 169.565 225.061 169.447 225.061 L 163.616 225.061 C 163.498 225.061 163.38 225.003 163.263 224.887 C 163.263 224.771 163.321 224.714 163.439 224.714 L 163.616 224.714 C 164.087 224.714 164.381 224.656 164.499 224.54 C 164.617 224.54 164.675 224.424 164.675 224.192 L 166.089 218.279 C 166.207 218.164 166.266 218.105 166.266 218.105 C 166.266 217.989 166.089 217.873 165.736 217.757 L 165.559 217.757 C 165.323 217.757 165.206 217.757 165.206 217.757 C 165.206 217.641 165.265 217.526 165.382 217.41 L 165.559 217.41 L 171.214 217.41 C 171.449 217.41 171.567 217.468 171.567 217.583 L 171.567 217.583 C 171.567 217.583 171.567 217.641 171.567 217.757 L 171.39 219.67 C 171.273 219.902 171.214 220.018 171.214 220.018 C 171.096 220.018 171.037 219.96 171.037 219.844 L 171.037 219.67 L 171.037 219.67 C 171.037 219.439 171.037 219.265 171.037 219.149 C 171.037 218.569 170.919 218.221 170.683 218.105 C 170.448 217.873 169.978 217.757 169.271 217.757 L 167.68 217.757 C 167.444 217.757 167.326 217.815 167.326 217.931 L 167.326 217.931 C 167.209 217.931 167.15 217.989 167.15 218.105 L 167.15 218.105 C 167.15 218.105 167.15 218.164 167.15 218.279 L 166.443 220.887 L 167.503 220.887 C 168.092 220.887 168.505 220.772 168.74 220.54 C 168.858 220.424 168.976 220.192 169.094 219.844 C 169.094 219.728 169.094 219.67 169.094 219.67 C 169.212 219.67 169.271 219.728 169.271 219.844 L 168.74 222.453 C 168.623 222.569 168.564 222.627 168.564 222.627 C 168.446 222.627 168.387 222.569 168.387 222.453 C 168.387 222.453 168.387 222.395 168.387 222.279 C 168.387 222.163 168.387 221.989 168.387 221.757 C 168.387 221.641 168.328 221.525 168.21 221.41 C 168.092 221.294 167.857 221.236 167.503 221.236 L 166.443 221.236 L 165.559 224.366 C 165.559 224.482 165.559 224.54 165.559 224.54 C 165.559 224.656 165.618 224.714 165.736 224.714 L 165.736 224.714 C 165.736 224.714 165.795 224.714 165.913 224.714 L 167.68 224.714 C 168.505 224.714 169.153 224.482 169.624 224.018 C 169.978 223.786 170.271 223.323 170.507 222.627 C 170.625 222.511 170.683 222.395 170.683 222.279 C 170.683 222.163 170.742 222.106 170.86 222.106 C 170.978 222.106 171.037 222.163 171.037 222.279 C 171.037 222.279 170.978 222.337 170.86 222.453 Z"/>
  <path fill="#000000" fill-opacity="1" stroke-width="1.33333" stroke-linejoin="round" d="M 254.898 217.995 L 254.191 220.778 C 254.073 220.894 254.014 220.952 254.014 220.952 L 253.837 220.952 C 253.719 220.952 253.66 220.894 253.66 220.778 L 253.837 220.256 L 253.837 220.256 C 253.837 219.329 253.543 218.691 252.953 218.344 L 252.953 218.344 C 252.6 218.227 252.247 218.169 251.894 218.169 C 251.187 218.169 250.48 218.459 249.773 219.039 C 249.538 219.154 249.361 219.329 249.243 219.561 C 248.536 220.372 248.065 221.416 247.829 222.691 C 247.829 222.923 247.829 223.096 247.829 223.212 C 247.829 224.256 248.242 224.952 249.066 225.3 C 249.302 225.416 249.655 225.474 250.127 225.474 C 250.834 225.474 251.482 225.241 252.07 224.778 C 252.659 224.314 253.071 223.734 253.307 223.038 C 253.307 222.923 253.366 222.865 253.484 222.865 C 253.484 222.865 253.484 222.923 253.484 223.038 C 253.484 223.154 253.425 223.387 253.307 223.734 C 253.071 224.198 252.718 224.604 252.247 224.952 C 251.541 225.532 250.775 225.821 249.95 225.821 C 248.89 225.821 248.065 225.532 247.476 224.952 C 247.004 224.372 246.769 223.676 246.769 222.865 C 246.769 221.705 247.181 220.662 248.006 219.734 C 248.831 218.807 249.714 218.227 250.657 217.995 C 251.128 217.879 251.541 217.821 251.894 217.821 C 252.718 217.821 253.307 218.169 253.66 218.865 L 254.544 217.995 C 254.662 217.879 254.721 217.821 254.721 217.821 C 254.839 217.821 254.898 217.879 254.898 217.995 Z"/>
</svg>