<?xml version="1.0" encoding="utf-8"?>
<svg width="450" height="230" viewBox="0 0 450 230" xmlns="http://www.w3.org/2000/svg">
  <line fill="none" stroke-width="1.33333" stroke-linejoin="round" stroke="#000000" stroke-opacity="1" x1="57.96" y1="180.163" x2="266.384" y2="180.163"/>
  <line fill="none" stroke-width="1.33333" stroke-linejoin="round" stroke="#000000" stroke-opacity="1" x1="266.384" y1="180.163" x2="275.764" y2="38.53"/>
  <line fill="none" stroke-width="1.33333" stroke-linejoin="round" stroke="#000000" stroke-opacity="1" x1="275.764" y1="38.53" x2="57.96" y2="180.163"/>
  <line fill="none" stroke-width="1.33333" stroke-linejoin="round" stroke="#000000" stroke-opacity="1" x1="85.884" y1="59.11" x2="266.384" y2="180.163"/>
  <line fill="none" stroke-width="1.33333" stroke-linejoin="round" stroke="#000000" stroke-opacity="1" x1="266.384" y1="180.163" x2="335.471" y2="62.953"/>
  <line fill="none" stroke-width="1.33333" stroke-linejoin="round" stroke="#000000" stroke-opacity="1" x1="335.471" y1="62.953" x2="85.884" y2="59.11"/>
  <path fill="#000000" fill-opacity="1" stroke-width="1.33333" stroke-linejoin="round" d="M 343.851 63.653 L 348.277 55.16 C 348.277 55.011 348.341 54.936 348.47 54.936 C 348.599 54.936 348.662 55.011 348.662 55.16 C 348.79 55.16 348.856 55.234 348.856 55.383 L 349.623 64.324 C 349.623 64.473 349.623 64.623 349.623 64.772 L 349.623 64.772 C 349.753 64.772 350.008 64.772 350.394 64.772 C 350.523 64.772 350.587 64.846 350.587 64.995 C 350.587 65.144 350.523 65.219 350.394 65.219 L 349.048 65.219 L 347.507 65.219 L 347.507 65.219 C 347.38 65.219 347.314 65.144 347.314 64.995 C 347.314 64.846 347.38 64.772 347.507 64.772 C 348.149 64.772 348.47 64.623 348.47 64.324 C 348.47 64.324 348.407 63.504 348.277 61.867 L 345.197 61.867 L 344.237 63.653 C 344.107 63.951 344.045 64.175 344.045 64.324 C 344.045 64.623 344.237 64.772 344.622 64.772 C 344.749 64.772 344.814 64.846 344.814 64.995 C 344.814 65.144 344.749 65.219 344.622 65.219 L 343.466 65.219 L 342.313 65.219 L 342.313 65.219 C 342.184 65.219 342.12 65.144 342.12 64.995 C 342.12 64.846 342.184 64.772 342.313 64.772 L 342.505 64.772 C 343.018 64.772 343.402 64.548 343.659 64.1 C 343.788 63.951 343.851 63.802 343.851 63.653 Z M 345.391 61.42 L 348.277 61.42 L 347.892 56.725 L 345.391 61.42 Z"/>
  <path fill="#000000" fill-opacity="1" stroke-width="1.33333" stroke-linejoin="round" d="M 73.36 58.831 L 75.093 51.231 C 75.093 51.082 75.093 50.933 75.093 50.784 C 75.093 50.784 75.028 50.709 74.9 50.559 L 74.9 50.559 C 74.9 50.559 74.836 50.559 74.708 50.559 C 74.58 50.559 74.452 50.559 74.323 50.559 C 74.067 50.559 73.937 50.559 73.937 50.559 C 73.937 50.261 74.003 50.112 74.131 50.112 L 74.323 50.112 L 78.364 50.112 C 79.391 50.112 80.097 50.485 80.48 51.231 C 80.609 51.529 80.673 51.827 80.673 52.124 C 80.673 52.869 80.354 53.539 79.712 54.136 C 79.712 54.136 79.647 54.136 79.519 54.136 C 79.134 54.434 78.686 54.658 78.171 54.807 C 79.07 54.956 79.647 55.328 79.904 55.923 C 80.032 56.223 80.097 56.519 80.097 56.817 C 80.097 57.563 79.775 58.234 79.134 58.831 L 79.134 58.831 C 78.493 59.576 77.659 59.948 76.633 59.948 L 72.206 59.948 C 72.078 59.948 72.014 59.874 72.014 59.725 C 72.014 59.576 72.078 59.501 72.206 59.501 L 72.206 59.501 C 72.848 59.501 73.169 59.427 73.169 59.278 C 73.296 59.278 73.36 59.129 73.36 58.831 Z M 75.286 54.807 L 77.017 54.807 C 77.915 54.807 78.62 54.434 79.134 53.688 C 79.519 53.241 79.712 52.72 79.712 52.124 C 79.712 51.38 79.455 50.933 78.942 50.784 C 78.686 50.635 78.493 50.559 78.364 50.559 L 76.633 50.559 C 76.376 50.559 76.247 50.635 76.247 50.784 L 76.054 50.784 L 76.054 50.784 C 76.054 50.784 76.054 50.933 76.054 51.231 M 74.708 59.501 L 76.44 59.501 C 77.21 59.501 77.851 59.129 78.364 58.383 C 78.748 57.936 78.942 57.34 78.942 56.594 C 78.942 56 78.748 55.553 78.364 55.254 C 78.107 55.105 77.851 55.03 77.596 55.03 L 75.286 55.03 L 74.323 59.054 C 74.323 59.203 74.323 59.278 74.323 59.278 C 74.323 59.427 74.323 59.501 74.323 59.501 L 74.516 59.501 C 74.516 59.501 74.58 59.501 74.708 59.501 Z"/>
  <path fill="#000000" fill-opacity="1" stroke-width="1.33333" stroke-linejoin="round" d="M 270.787 186.396 L 270.019 189.972 C 269.889 190.122 269.825 190.196 269.825 190.196 L 269.633 190.196 C 269.504 190.196 269.441 190.122 269.441 189.972 L 269.633 189.303 L 269.633 189.303 C 269.633 188.11 269.312 187.291 268.67 186.843 L 268.67 186.843 C 268.285 186.694 267.902 186.619 267.517 186.619 C 266.746 186.619 265.976 186.993 265.208 187.738 C 264.951 187.887 264.759 188.11 264.63 188.408 C 263.859 189.452 263.347 190.792 263.091 192.432 C 263.091 192.73 263.091 192.954 263.091 193.103 C 263.091 194.443 263.54 195.338 264.437 195.785 C 264.693 195.934 265.078 196.008 265.593 196.008 C 266.362 196.008 267.067 195.71 267.71 195.114 C 268.351 194.517 268.799 193.772 269.056 192.879 C 269.056 192.73 269.119 192.656 269.248 192.656 C 269.248 192.656 269.248 192.73 269.248 192.879 C 269.248 193.028 269.184 193.326 269.056 193.772 C 268.799 194.368 268.415 194.891 267.902 195.338 C 267.131 196.083 266.298 196.455 265.4 196.455 C 264.245 196.455 263.347 196.083 262.706 195.338 C 262.192 194.592 261.935 193.7 261.935 192.656 C 261.935 191.165 262.384 189.823 263.283 188.633 C 264.181 187.44 265.142 186.694 266.168 186.396 C 266.683 186.247 267.131 186.172 267.517 186.172 C 268.415 186.172 269.056 186.619 269.441 187.514 L 270.402 186.396 C 270.53 186.247 270.594 186.172 270.594 186.172 C 270.723 186.172 270.787 186.247 270.787 186.396 Z"/>
  <path fill="#000000" fill-opacity="1" stroke-width="1.33333" stroke-linejoin="round" d="M 274.494 30.713 L 278.92 22.219 C 278.92 22.069 278.984 21.995 279.113 21.995 C 279.241 21.995 279.305 22.069 279.305 22.219 C 279.435 22.219 279.498 22.294 279.498 22.443 L 280.266 31.383 C 280.266 31.532 280.266 31.681 280.266 31.829 L 280.266 31.829 C 280.395 31.829 280.651 31.829 281.037 31.829 C 281.166 31.829 281.23 31.906 281.23 32.053 C 281.23 32.202 281.166 32.276 281.037 32.276 L 279.691 32.276 L 278.15 32.276 L 278.15 32.276 C 278.023 32.276 277.957 32.202 277.957 32.053 C 277.957 31.906 278.023 31.829 278.15 31.829 C 278.791 31.829 279.113 31.681 279.113 31.383 C 279.113 31.383 279.049 30.564 278.92 28.924 L 275.84 28.924 L 274.88 30.713 C 274.75 31.011 274.687 31.234 274.687 31.383 C 274.687 31.681 274.88 31.829 275.265 31.829 C 275.392 31.829 275.457 31.906 275.457 32.053 C 275.457 32.202 275.392 32.276 275.265 32.276 L 274.109 32.276 L 272.956 32.276 L 272.956 32.276 C 272.826 32.276 272.763 32.202 272.763 32.053 C 272.763 31.906 272.826 31.829 272.956 31.829 L 273.148 31.829 C 273.661 31.829 274.045 31.607 274.302 31.16 C 274.43 31.011 274.494 30.862 274.494 30.713 Z M 276.033 28.477 L 278.92 28.477 L 278.534 23.783 L 276.033 28.477 Z"/>
  <path fill="#000000" fill-opacity="1" stroke-width="1.33333" stroke-linejoin="round" d="M 283.77 21.52 L 282.288 25.744 L 282.153 25.902 C 282.063 25.902 281.973 25.849 281.884 25.744 L 281.884 25.588 L 282.961 21.208 C 283.051 20.998 283.186 20.841 283.366 20.738 C 283.544 20.738 283.679 20.841 283.77 21.05 C 283.86 21.155 283.905 21.259 283.905 21.362 L 283.77 21.52 Z"/>
  <path fill="#000000" fill-opacity="1" stroke-width="1.33333" stroke-linejoin="round" d="M 49.378 196.057 L 51.11 188.455 C 51.11 188.306 51.11 188.157 51.11 188.008 C 51.11 188.008 51.046 187.933 50.917 187.784 L 50.917 187.784 C 50.917 187.784 50.854 187.784 50.724 187.784 C 50.597 187.784 50.468 187.784 50.339 187.784 C 50.083 187.784 49.956 187.784 49.956 187.784 C 49.956 187.488 50.019 187.337 50.147 187.337 L 50.339 187.337 L 54.381 187.337 C 55.407 187.337 56.113 187.71 56.498 188.455 C 56.625 188.753 56.691 189.052 56.691 189.35 C 56.691 190.095 56.37 190.766 55.728 191.362 C 55.728 191.362 55.665 191.362 55.535 191.362 C 55.15 191.66 54.702 191.884 54.189 192.032 C 55.086 192.181 55.665 192.553 55.921 193.149 C 56.05 193.447 56.113 193.746 56.113 194.044 C 56.113 194.789 55.791 195.461 55.15 196.057 L 55.15 196.057 C 54.509 196.8 53.675 197.173 52.649 197.173 L 48.222 197.173 C 48.096 197.173 48.03 197.098 48.03 196.949 C 48.03 196.8 48.096 196.725 48.222 196.725 L 48.222 196.725 C 48.864 196.725 49.186 196.65 49.186 196.501 C 49.312 196.501 49.378 196.355 49.378 196.057 Z M 51.302 192.032 L 53.033 192.032 C 53.931 192.032 54.638 191.66 55.15 190.915 C 55.535 190.468 55.728 189.946 55.728 189.35 C 55.728 188.604 55.472 188.157 54.958 188.008 C 54.702 187.859 54.509 187.784 54.381 187.784 L 52.649 187.784 C 52.392 187.784 52.264 187.859 52.264 188.008 L 52.072 188.008 L 52.072 188.008 C 52.072 188.008 52.072 188.157 52.072 188.455 M 50.724 196.725 L 52.456 196.725 C 53.226 196.725 53.868 196.355 54.381 195.61 C 54.765 195.162 54.958 194.566 54.958 193.821 C 54.958 193.224 54.765 192.777 54.381 192.479 C 54.123 192.33 53.868 192.255 53.612 192.255 L 51.302 192.255 L 50.339 196.28 C 50.339 196.427 50.339 196.501 50.339 196.501 C 50.339 196.65 50.339 196.725 50.339 196.725 L 50.532 196.725 C 50.532 196.725 50.597 196.725 50.724 196.725 Z"/>
  <path fill="#000000" fill-opacity="1" stroke-width="1.33333" stroke-linejoin="round" d="M 59.568 186.416 L 58.087 190.641 L 57.952 190.796 C 57.862 190.796 57.772 190.746 57.683 190.641 L 57.683 190.483 L 58.759 186.102 C 58.849 185.895 58.984 185.737 59.164 185.635 C 59.343 185.635 59.478 185.737 59.568 185.947 C 59.658 186.051 59.703 186.154 59.703 186.259 L 59.568 186.416 Z"/>
</svg>