<?xml version="1.0" encoding="utf-8"?>
<!DOCTYPE svg PUBLIC "-//W3C//DTD SVG 1.1//EN" "http://www.w3.org/Graphics/SVG/1.1/DTD/svg11.dtd">
<svg width="450.33" height="230" viewBox="0 0 450 230 " preserveAspectRatio="xMinYMin meet" xmlns="http://www.w3.org/2000/svg">
  <line fill="none" stroke-width="1.33333" stroke-linejoin="round" stroke="#000000" stroke-opacity="1" x1="64.449" y1="206.146" x2="214.218" y2="206.146"/>
  <line fill="none" stroke-width="1.33333" stroke-linejoin="round" stroke="#000000" stroke-opacity="1" x1="139.333" y1="24.841" x2="214.218" y2="206.146"/>
  <line fill="none" stroke-width="1.33333" stroke-linejoin="round" stroke="#000000" stroke-opacity="1" x1="139.333" y1="24.841" x2="64.449" y2="206.146"/>
  <line fill="none" stroke-width="1.33333" stroke-linejoin="round" stroke="#000000" stroke-opacity="1" x1="93.052" y1="136.894" x2="214.218" y2="206.146"/>
  <path fill="#000000" fill-opacity="1" stroke-width="1.33333" stroke-linejoin="round" d="M 135.787 19.347 L 140.9 12.701 C 140.9 12.583 140.976 12.525 141.122 12.525 C 141.272 12.525 141.346 12.583 141.346 12.701 C 141.494 12.701 141.568 12.76 141.568 12.876 L 142.458 19.871 C 142.458 19.986 142.458 20.104 142.458 20.221 L 142.458 20.221 C 142.605 20.221 142.903 20.221 143.346 20.221 C 143.495 20.221 143.57 20.278 143.57 20.396 C 143.57 20.512 143.495 20.572 143.346 20.572 L 141.791 20.572 L 140.011 20.572 L 140.011 20.572 C 139.864 20.572 139.79 20.512 139.79 20.396 C 139.79 20.278 139.864 20.221 140.011 20.221 C 140.753 20.221 141.122 20.104 141.122 19.871 C 141.122 19.871 141.05 19.23 140.9 17.947 L 137.343 17.947 L 136.233 19.347 C 136.084 19.579 136.011 19.754 136.011 19.871 C 136.011 20.104 136.233 20.221 136.676 20.221 C 136.826 20.221 136.9 20.278 136.9 20.396 C 136.9 20.512 136.826 20.572 136.676 20.572 L 135.344 20.572 L 134.008 20.572 L 134.008 20.572 C 133.862 20.572 133.786 20.512 133.786 20.396 C 133.786 20.278 133.862 20.221 134.008 20.221 L 134.232 20.221 C 134.824 20.221 135.269 20.045 135.565 19.696 C 135.715 19.579 135.787 19.463 135.787 19.347 Z M 137.567 17.596 L 140.9 17.596 L 140.457 13.925 L 137.567 17.596 Z"/>
  <path fill="#000000" fill-opacity="1" stroke-width="1.33333" stroke-linejoin="round" d="M 78.653 136.339 L 80.654 130.392 C 80.654 130.275 80.654 130.159 80.654 130.041 C 80.654 130.041 80.581 129.985 80.432 129.867 L 80.432 129.867 C 80.136 129.867 79.913 129.867 79.764 129.867 C 79.468 129.867 79.32 129.867 79.32 129.867 C 79.32 129.634 79.394 129.517 79.542 129.517 L 79.764 129.517 L 84.433 129.517 C 85.767 129.517 86.731 129.926 87.323 130.741 C 87.62 131.209 87.769 131.733 87.769 132.316 C 87.769 133.482 87.323 134.532 86.435 135.463 C 85.544 136.28 84.508 136.805 83.322 137.037 C 82.876 137.154 82.507 137.213 82.211 137.213 L 77.319 137.213 C 77.172 137.213 77.096 137.154 77.096 137.037 C 77.096 136.921 77.172 136.863 77.319 136.863 L 77.319 136.863 C 78.061 136.863 78.431 136.805 78.431 136.688 C 78.578 136.688 78.653 136.572 78.653 136.339 Z M 81.766 130.392 L 79.764 136.514 C 79.764 136.631 79.764 136.688 79.764 136.688 C 79.764 136.805 79.764 136.863 79.764 136.863 L 79.987 136.863 C 79.987 136.863 80.061 136.863 80.209 136.863 L 81.766 136.863 C 82.95 136.863 83.988 136.514 84.878 135.813 C 85.025 135.697 85.101 135.639 85.101 135.639 C 85.841 134.823 86.36 133.773 86.657 132.49 C 86.657 132.257 86.657 132.083 86.657 131.965 C 86.657 131.033 86.137 130.392 85.101 130.041 C 84.803 129.926 84.433 129.867 83.988 129.867 L 82.434 129.867 C 82.135 129.867 81.988 129.926 81.988 130.041 L 81.988 130.041 C 81.84 130.041 81.766 130.159 81.766 130.392 Z"/>
  <path fill="#000000" fill-opacity="1" stroke-width="1.33333" stroke-linejoin="round" d="M 58.434 218.222 L 60.435 212.276 C 60.435 212.16 60.435 212.044 60.435 211.927 C 60.435 211.927 60.361 211.869 60.214 211.752 L 60.214 211.752 C 60.214 211.752 60.139 211.752 59.991 211.752 C 59.841 211.752 59.694 211.752 59.546 211.752 C 59.25 211.752 59.101 211.752 59.101 211.752 C 59.101 211.518 59.176 211.401 59.322 211.401 L 59.546 211.401 L 64.213 211.401 C 65.399 211.401 66.216 211.693 66.66 212.276 C 66.809 212.51 66.881 212.743 66.881 212.976 C 66.881 213.559 66.511 214.083 65.771 214.55 C 65.771 214.55 65.696 214.55 65.548 214.55 C 65.103 214.784 64.584 214.958 63.992 215.075 C 65.029 215.192 65.696 215.483 65.993 215.949 C 66.14 216.182 66.216 216.416 66.216 216.649 C 66.216 217.232 65.845 217.756 65.103 218.222 L 65.103 218.222 C 64.362 218.805 63.4 219.096 62.214 219.096 L 57.1 219.096 C 56.952 219.096 56.878 219.039 56.878 218.922 C 56.878 218.805 56.952 218.748 57.1 218.748 L 57.1 218.748 C 57.842 218.748 58.211 218.689 58.211 218.573 C 58.361 218.573 58.434 218.457 58.434 218.222 Z M 60.656 215.075 L 62.659 215.075 C 63.696 215.075 64.511 214.784 65.103 214.2 C 65.548 213.85 65.771 213.443 65.771 212.976 C 65.771 212.393 65.475 212.044 64.881 211.927 C 64.584 211.81 64.362 211.752 64.213 211.752 L 62.214 211.752 C 61.917 211.752 61.769 211.81 61.769 211.927 L 61.547 211.927 L 61.547 211.927 C 61.547 211.927 61.547 212.044 61.547 212.276 M 59.991 218.748 L 61.991 218.748 C 62.881 218.748 63.622 218.457 64.213 217.873 C 64.659 217.523 64.881 217.057 64.881 216.473 C 64.881 216.008 64.659 215.658 64.213 215.424 C 63.918 215.307 63.622 215.249 63.324 215.249 L 60.656 215.249 L 59.546 218.398 C 59.546 218.514 59.546 218.573 59.546 218.573 C 59.546 218.689 59.546 218.748 59.546 218.748 L 59.768 218.748 C 59.768 218.748 59.841 218.748 59.991 218.748 Z"/>
  <path fill="#000000" fill-opacity="1" stroke-width="1.33333" stroke-linejoin="round" d="M 222.116 211.401 L 221.228 214.2 C 221.078 214.317 221.005 214.375 221.005 214.375 L 220.783 214.375 C 220.635 214.375 220.561 214.317 220.561 214.2 L 220.783 213.676 L 220.783 213.676 C 220.783 212.743 220.413 212.102 219.671 211.752 L 219.671 211.752 C 219.225 211.636 218.783 211.577 218.337 211.577 C 217.448 211.577 216.558 211.869 215.669 212.451 C 215.373 212.569 215.152 212.743 215.002 212.976 C 214.113 213.791 213.52 214.842 213.224 216.124 C 213.224 216.357 213.224 216.531 213.224 216.649 C 213.224 217.698 213.743 218.398 214.78 218.748 C 215.077 218.864 215.521 218.922 216.115 218.922 C 217.004 218.922 217.819 218.689 218.56 218.222 C 219.301 217.756 219.819 217.174 220.116 216.473 C 220.116 216.357 220.189 216.299 220.338 216.299 C 220.338 216.299 220.338 216.357 220.338 216.473 C 220.338 216.591 220.263 216.823 220.116 217.174 C 219.819 217.639 219.374 218.047 218.783 218.398 C 217.891 218.981 216.929 219.272 215.892 219.272 C 214.558 219.272 213.52 218.981 212.779 218.398 C 212.186 217.814 211.89 217.115 211.89 216.299 C 211.89 215.133 212.408 214.083 213.447 213.152 C 214.484 212.218 215.595 211.636 216.781 211.401 C 217.373 211.286 217.891 211.227 218.337 211.227 C 219.374 211.227 220.116 211.577 220.561 212.276 L 221.672 211.401 C 221.82 211.286 221.893 211.227 221.893 211.227 C 222.042 211.227 222.116 211.286 222.116 211.401 Z"/>
</svg>