<?xml version="1.0" encoding="utf-8"?>
<svg width="450.33" height="230" viewBox="0 0 450 230 " preserveAspectRatio="xMinYMin meet" xmlns="http://www.w3.org/2000/svg">
  <rect x="69.646" y="39.754" fill="none" stroke-width="1.33333" stroke-linejoin="round" stroke="#000000" stroke-opacity="1" width="133.625" height="141.861"/>
  <path fill="none" stroke-width="1.33333" stroke-linejoin="round" stroke="#000000" stroke-opacity="1" d="M 203.272 39.754 L 203.272 181.616 L 318.996 110.684 L 203.272 39.754 Z"/>
  <line fill="none" stroke-width="1.33333" stroke-linejoin="round" stroke="#000000" stroke-opacity="1" x1="69.646" y1="181.616" x2="203.272" y2="181.616"/>
  <line fill="none" stroke-width="1.33333" stroke-linejoin="round" stroke="#000000" stroke-opacity="1" x1="203.272" y1="181.616" x2="203.272" y2="39.754"/>
  <line fill="none" stroke-width="1.33333" stroke-linejoin="round" stroke="#000000" stroke-opacity="1" x1="203.272" y1="39.754" x2="69.646" y2="39.754"/>
  <line fill="none" stroke-width="1.33333" stroke-linejoin="round" stroke="#000000" stroke-opacity="1" x1="69.646" y1="39.754" x2="69.646" y2="181.616"/>
  <line fill="none" stroke-width="1.33333" stroke-linejoin="round" stroke="#000000" stroke-opacity="1" x1="203.272" y1="39.754" x2="203.272" y2="181.616"/>
  <line fill="none" stroke-width="1.33333" stroke-linejoin="round" stroke="#000000" stroke-opacity="1" x1="203.272" y1="181.616" x2="318.996" y2="110.684"/>
  <line fill="none" stroke-width="1.33333" stroke-linejoin="round" stroke="#000000" stroke-opacity="1" x1="318.996" y1="110.684" x2="203.272" y2="39.754"/>
  <line fill="none" stroke-width="1.33333" stroke-linejoin="round" stroke="#000000" stroke-opacity="1" x1="69.646" y1="39.754" x2="318.996" y2="110.684"/>
  <path fill="#000000" fill-opacity="1" stroke-width="1.33333" stroke-linejoin="round" d="M 62.923 29.112 L 66.492 14.793 C 66.492 14.514 66.492 14.233 66.492 13.951 C 66.492 13.951 66.36 13.812 66.097 13.531 L 66.097 13.531 C 66.097 13.531 65.963 13.531 65.698 13.531 C 65.435 13.531 65.17 13.531 64.906 13.531 C 64.376 13.531 64.112 13.531 64.112 13.531 C 64.112 12.969 64.245 12.688 64.509 12.688 L 64.906 12.688 L 73.236 12.688 C 75.353 12.688 76.807 13.39 77.601 14.793 C 77.864 15.355 77.997 15.918 77.997 16.478 C 77.997 17.883 77.336 19.146 76.013 20.27 C 76.013 20.27 75.881 20.27 75.618 20.27 C 74.824 20.831 73.897 21.251 72.841 21.532 C 74.691 21.813 75.881 22.515 76.409 23.639 C 76.675 24.2 76.807 24.761 76.807 25.322 C 76.807 26.726 76.146 27.991 74.824 29.112 L 74.824 29.112 C 73.502 30.517 71.782 31.219 69.667 31.219 L 60.542 31.219 C 60.277 31.219 60.146 31.078 60.146 30.798 C 60.146 30.517 60.277 30.376 60.542 30.376 L 60.542 30.376 C 61.864 30.376 62.526 30.237 62.526 29.955 C 62.791 29.955 62.923 29.674 62.923 29.112 Z M 66.89 21.532 L 70.459 21.532 C 72.312 21.532 73.765 20.831 74.824 19.427 C 75.618 18.585 76.013 17.601 76.013 16.478 C 76.013 15.075 75.485 14.233 74.426 13.951 C 73.897 13.671 73.502 13.531 73.236 13.531 L 69.667 13.531 C 69.137 13.531 68.873 13.671 68.873 13.951 L 68.475 13.951 L 68.475 13.951 C 68.475 13.951 68.475 14.233 68.475 14.793 M 65.698 30.376 L 69.269 30.376 C 70.857 30.376 72.179 29.674 73.236 28.27 C 74.03 27.427 74.426 26.305 74.426 24.901 C 74.426 23.779 74.03 22.937 73.236 22.375 C 72.708 22.094 72.179 21.953 71.65 21.953 L 66.89 21.953 L 64.906 29.535 C 64.906 29.815 64.906 29.955 64.906 29.955 C 64.906 30.237 64.906 30.376 64.906 30.376 L 65.303 30.376 C 65.303 30.376 65.435 30.376 65.698 30.376 Z"/>
  <path fill="#000000" fill-opacity="1" stroke-width="1.33333" stroke-linejoin="round" d="M 195.609 29.689 L 204.733 13.687 C 204.733 13.405 204.865 13.264 205.129 13.264 C 205.394 13.264 205.527 13.405 205.527 13.687 C 205.791 13.687 205.923 13.825 205.923 14.106 L 207.51 30.952 C 207.51 31.234 207.51 31.515 207.51 31.794 L 207.51 31.794 C 207.774 31.794 208.304 31.794 209.098 31.794 C 209.361 31.794 209.493 31.935 209.493 32.217 C 209.493 32.496 209.361 32.637 209.098 32.637 L 206.321 32.637 L 203.146 32.637 L 203.146 32.637 C 202.882 32.637 202.75 32.496 202.75 32.217 C 202.75 31.935 202.882 31.794 203.146 31.794 C 204.468 31.794 205.129 31.515 205.129 30.952 C 205.129 30.952 204.998 29.409 204.733 26.321 L 198.385 26.321 L 196.401 29.689 C 196.138 30.25 196.006 30.672 196.006 30.952 C 196.006 31.515 196.401 31.794 197.195 31.794 C 197.46 31.794 197.593 31.935 197.593 32.217 C 197.593 32.496 197.46 32.637 197.195 32.637 L 194.815 32.637 L 192.435 32.637 L 192.435 32.637 C 192.172 32.637 192.039 32.496 192.039 32.217 C 192.039 31.935 192.172 31.794 192.435 31.794 L 192.832 31.794 C 193.89 31.794 194.683 31.375 195.212 30.532 C 195.477 30.25 195.609 29.97 195.609 29.689 Z M 198.783 25.478 L 204.733 25.478 L 203.94 16.634 L 198.783 25.478 Z"/>
  <path fill="#000000" fill-opacity="1" stroke-width="1.33333" stroke-linejoin="round" d="M 82.403 190.014 L 80.817 196.754 C 80.551 197.035 80.418 197.173 80.418 197.173 L 80.023 197.173 C 79.758 197.173 79.625 197.035 79.625 196.754 L 80.023 195.49 L 80.023 195.49 C 79.361 193.576 79.361 191.7 78.04 190.857 L 78.04 190.857 C 77.246 190.577 76.452 190.436 75.658 190.436 C 74.072 190.436 72.485 191.138 70.897 192.542 C 70.37 192.822 69.973 193.243 69.708 193.805 C 68.12 195.769 67.063 198.297 66.534 201.385 C 66.534 201.948 66.534 202.368 66.534 202.65 C 66.534 205.176 67.46 206.861 69.312 207.703 C 69.841 207.983 70.635 208.124 71.691 208.124 C 73.279 208.124 74.734 207.563 76.055 206.439 C 77.378 205.317 78.302 203.913 78.833 202.227 C 78.833 201.948 78.964 201.808 79.229 201.808 C 79.229 201.808 79.229 201.948 79.229 202.227 C 79.229 202.509 79.096 203.07 78.833 203.913 C 78.302 205.035 77.511 206.019 76.452 206.861 C 74.865 208.265 73.146 208.967 71.295 208.967 C 68.914 208.967 67.063 208.265 65.74 206.861 C 64.684 205.457 64.154 203.772 64.154 201.808 C 64.154 198.999 65.08 196.471 66.931 194.226 C 68.782 191.981 70.767 190.577 72.881 190.014 C 73.94 189.734 74.865 189.593 75.658 189.593 C 77.511 189.593 78.833 190.436 79.625 192.119 L 81.609 190.014 C 81.874 189.734 82.006 189.593 82.006 189.593 C 82.27 189.593 82.403 189.734 82.403 190.014 Z"/>
  <path fill="#000000" fill-opacity="1" stroke-width="1.33333" stroke-linejoin="round" d="M 196.548 206.439 L 200.12 192.119 C 200.12 191.84 200.12 191.558 200.12 191.279 C 200.12 191.279 199.987 191.138 199.722 190.857 L 199.722 190.857 C 199.193 190.857 198.797 190.857 198.532 190.857 C 198.003 190.857 197.738 190.857 197.738 190.857 C 197.738 190.295 197.87 190.014 198.135 190.014 L 198.532 190.014 L 206.863 190.014 C 209.243 190.014 210.962 190.998 212.02 192.962 C 212.548 194.086 212.813 195.349 212.813 196.754 C 212.813 199.561 212.02 202.087 210.432 204.334 C 208.847 206.3 206.996 207.563 204.88 208.124 C 204.086 208.405 203.425 208.545 202.897 208.545 L 194.169 208.545 C 193.904 208.545 193.771 208.405 193.771 208.124 C 193.771 207.843 193.904 207.703 194.169 207.703 L 194.169 207.703 C 195.492 207.703 196.152 207.563 196.152 207.281 C 196.416 207.281 196.548 207.002 196.548 206.439 Z M 202.103 192.119 L 198.532 206.861 C 198.532 207.141 198.532 207.281 198.532 207.281 C 198.532 207.563 198.532 207.703 198.532 207.703 L 198.929 207.703 C 198.929 207.703 199.061 207.703 199.326 207.703 L 202.103 207.703 C 204.219 207.703 206.069 206.861 207.657 205.176 C 207.92 204.894 208.053 204.755 208.053 204.755 C 209.376 202.789 210.302 200.263 210.83 197.173 C 210.83 196.612 210.83 196.192 210.83 195.911 C 210.83 193.664 209.903 192.119 208.053 191.279 C 207.525 190.998 206.863 190.857 206.069 190.857 L 203.292 190.857 C 202.764 190.857 202.498 190.998 202.498 191.279 L 202.498 191.279 C 202.235 191.279 202.103 191.558 202.103 192.119 Z"/>
  <path fill="#000000" fill-opacity="1" stroke-width="1.33333" stroke-linejoin="round" d="M 340.05 115.693 L 337.67 121.59 C 337.67 121.869 337.67 122.009 337.67 122.009 L 337.273 122.009 C 337.273 122.009 337.142 122.009 336.877 122.009 L 323.785 122.009 C 323.521 122.009 323.256 121.869 322.992 121.59 C 322.992 121.307 323.124 121.167 323.389 121.167 L 323.785 121.167 C 324.844 121.167 325.505 121.028 325.77 120.747 C 326.034 120.747 326.166 120.465 326.166 119.904 L 329.34 105.585 C 329.605 105.305 329.737 105.164 329.737 105.164 C 329.737 104.883 329.34 104.604 328.546 104.321 L 328.149 104.321 C 327.622 104.321 327.355 104.321 327.355 104.321 C 327.355 104.04 327.488 103.761 327.754 103.479 L 328.149 103.479 L 340.844 103.479 C 341.373 103.479 341.638 103.619 341.638 103.902 L 341.638 103.902 C 341.638 103.902 341.638 104.04 341.638 104.321 L 341.241 108.954 C 340.976 109.516 340.844 109.796 340.844 109.796 C 340.579 109.796 340.447 109.656 340.447 109.375 L 340.447 108.954 L 340.447 108.954 C 340.447 108.392 340.447 107.972 340.447 107.69 C 340.447 106.287 340.182 105.444 339.655 105.164 C 339.126 104.604 338.067 104.321 336.481 104.321 L 332.91 104.321 C 332.382 104.321 332.117 104.462 332.117 104.742 L 332.117 104.742 C 331.851 104.742 331.721 104.883 331.721 105.164 L 331.721 105.164 C 331.721 105.164 331.721 105.305 331.721 105.585 L 330.133 111.901 L 332.512 111.901 C 333.836 111.901 334.761 111.622 335.289 111.059 C 335.555 110.78 335.82 110.218 336.083 109.375 C 336.083 109.094 336.083 108.954 336.083 108.954 C 336.348 108.954 336.481 109.094 336.481 109.375 L 335.289 115.693 C 335.027 115.974 334.893 116.113 334.893 116.113 C 334.628 116.113 334.498 115.974 334.498 115.693 C 334.498 115.693 334.498 115.552 334.498 115.272 C 334.498 114.991 334.498 114.57 334.498 114.008 C 334.498 113.727 334.365 113.446 334.1 113.167 C 333.836 112.885 333.306 112.744 332.512 112.744 L 330.133 112.744 L 328.149 120.326 C 328.149 120.606 328.149 120.747 328.149 120.747 C 328.149 121.028 328.282 121.167 328.546 121.167 L 328.546 121.167 C 328.546 121.167 328.678 121.167 328.943 121.167 L 332.91 121.167 C 334.761 121.167 336.216 120.606 337.273 119.483 C 338.067 118.921 338.728 117.798 339.256 116.113 C 339.522 115.834 339.655 115.552 339.655 115.272 C 339.655 114.991 339.787 114.85 340.05 114.85 C 340.315 114.85 340.447 114.991 340.447 115.272 C 340.447 115.272 340.315 115.411 340.05 115.693 Z"/>
</svg>