<?xml version="1.0" encoding="utf-8"?>
<svg width="450.33" height="230" viewBox="0 0 450 230 " xmlns="http://www.w3.org/2000/svg">
  <rect x="-32" y="362.667" fill="#FFFFFF" fill-opacity="1" stroke-linejoin="round" width="654.167" height="376.538"/>
  <line fill="none" stroke-width="1.33333" stroke-linejoin="round" stroke="#000000" stroke-opacity="1" x1="102.723" y1="197.288" x2="293.519" y2="197.288"/>
  <line fill="none" stroke-width="1.33333" stroke-linejoin="round" stroke="#000000" stroke-opacity="1" x1="293.519" y1="197.288" x2="174.272" y2="76.037"/>
  <line fill="none" stroke-width="1.33333" stroke-linejoin="round" stroke="#000000" stroke-opacity="1" x1="174.272" y1="76.037" x2="102.723" y2="197.288"/>
  <line fill="none" stroke-width="1.33333" stroke-linejoin="round" stroke="#000000" stroke-opacity="1" x1="141.475" y1="80.087" x2="293.519" y2="197.288"/>
  <line fill="none" stroke-width="1.33333" stroke-linejoin="round" stroke="#000000" stroke-opacity="1" x1="293.519" y1="197.288" x2="270.532" y2="27.414"/>
  <line fill="none" stroke-width="1.33333" stroke-linejoin="round" stroke="#000000" stroke-opacity="1" x1="270.532" y1="27.414" x2="141.475" y2="80.087"/>
  <path fill="#000000" fill-opacity="1" stroke-width="1.33333" stroke-linejoin="round" d="M 269.767 21.691 L 272.067 12.856 C 272.067 12.683 272.067 12.509 272.067 12.336 C 272.067 12.336 271.982 12.249 271.812 12.076 L 271.812 12.076 C 271.471 12.076 271.215 12.076 271.045 12.076 C 270.704 12.076 270.533 12.076 270.533 12.076 C 270.533 11.729 270.619 11.556 270.79 11.556 L 271.045 11.556 L 276.412 11.556 C 277.945 11.556 279.053 12.163 279.735 13.376 C 280.076 14.069 280.246 14.848 280.246 15.714 C 280.246 17.446 279.735 19.005 278.713 20.392 C 277.69 21.605 276.498 22.384 275.135 22.73 C 274.624 22.904 274.197 22.991 273.856 22.991 L 268.234 22.991 C 268.064 22.991 267.978 22.904 267.978 22.73 C 267.978 22.557 268.064 22.471 268.234 22.471 L 268.234 22.471 C 269.086 22.471 269.511 22.384 269.511 22.211 C 269.682 22.211 269.767 22.037 269.767 21.691 Z M 273.345 12.856 L 271.045 21.952 C 271.045 22.125 271.045 22.211 271.045 22.211 C 271.045 22.384 271.045 22.471 271.045 22.471 L 271.301 22.471 C 271.301 22.471 271.385 22.471 271.556 22.471 L 273.345 22.471 C 274.708 22.471 275.901 21.952 276.923 20.912 C 277.093 20.738 277.179 20.652 277.179 20.652 C 278.031 19.439 278.627 17.88 278.968 15.974 C 278.968 15.628 278.968 15.367 278.968 15.194 C 278.968 13.808 278.372 12.856 277.179 12.336 C 276.839 12.163 276.412 12.076 275.901 12.076 L 274.113 12.076 C 273.771 12.076 273.6 12.163 273.6 12.336 L 273.6 12.336 C 273.43 12.336 273.345 12.509 273.345 12.856 Z"/>
  <path fill="#000000" fill-opacity="1" stroke-width="1.33333" stroke-linejoin="round" d="M 138.389 77.74 L 136.856 81.378 C 136.856 81.551 136.856 81.639 136.856 81.639 L 136.6 81.639 C 136.6 81.639 136.515 81.639 136.345 81.639 L 127.911 81.639 C 127.74 81.639 127.57 81.551 127.4 81.378 C 127.4 81.205 127.484 81.119 127.655 81.119 L 127.911 81.119 C 128.592 81.119 129.018 81.032 129.188 80.859 C 129.358 80.859 129.444 80.685 129.444 80.339 L 131.489 71.504 C 131.659 71.331 131.745 71.243 131.745 71.243 C 131.745 71.07 131.489 70.897 130.977 70.724 L 130.721 70.724 C 130.381 70.724 130.21 70.724 130.21 70.724 C 130.21 70.55 130.296 70.377 130.466 70.204 L 130.721 70.204 L 138.901 70.204 C 139.241 70.204 139.412 70.291 139.412 70.464 L 139.412 70.464 C 139.412 70.464 139.412 70.55 139.412 70.724 L 139.155 73.583 C 138.985 73.929 138.901 74.102 138.901 74.102 C 138.73 74.102 138.644 74.015 138.644 73.842 L 138.644 73.583 L 138.644 73.583 C 138.644 73.236 138.644 72.976 138.644 72.802 C 138.644 71.936 138.474 71.416 138.133 71.243 C 137.792 70.897 137.111 70.724 136.089 70.724 L 133.789 70.724 C 133.449 70.724 133.278 70.811 133.278 70.984 L 133.278 70.984 C 133.108 70.984 133.022 71.07 133.022 71.243 L 133.022 71.243 C 133.022 71.243 133.022 71.331 133.022 71.504 L 132 75.401 L 133.533 75.401 C 134.385 75.401 134.982 75.228 135.323 74.881 C 135.493 74.708 135.663 74.362 135.834 73.842 C 135.834 73.669 135.834 73.583 135.834 73.583 C 136.004 73.583 136.089 73.669 136.089 73.842 L 135.323 77.74 C 135.152 77.914 135.066 78.001 135.066 78.001 C 134.896 78.001 134.812 77.914 134.812 77.74 C 134.812 77.74 134.812 77.653 134.812 77.48 C 134.812 77.308 134.812 77.047 134.812 76.701 C 134.812 76.528 134.726 76.354 134.555 76.181 C 134.385 76.008 134.044 75.921 133.533 75.921 L 132 75.921 L 130.721 80.599 C 130.721 80.773 130.721 80.859 130.721 80.859 C 130.721 81.032 130.807 81.119 130.977 81.119 L 130.977 81.119 C 130.977 81.119 131.063 81.119 131.234 81.119 L 133.789 81.119 C 134.982 81.119 135.918 80.773 136.6 80.08 C 137.111 79.733 137.538 79.04 137.878 78.001 C 138.049 77.828 138.133 77.653 138.133 77.48 C 138.133 77.308 138.219 77.221 138.389 77.221 C 138.56 77.221 138.644 77.308 138.644 77.48 C 138.644 77.48 138.56 77.567 138.389 77.74 Z"/>
  <path fill="#000000" fill-opacity="1" stroke-width="1.33333" stroke-linejoin="round" d="M 183.074 74.567 L 188.952 64.692 C 188.952 64.519 189.037 64.432 189.208 64.432 C 189.378 64.432 189.464 64.519 189.464 64.692 C 189.634 64.692 189.719 64.778 189.719 64.952 L 190.741 75.347 C 190.741 75.52 190.741 75.694 190.741 75.867 L 190.741 75.867 C 190.912 75.867 191.252 75.867 191.763 75.867 C 191.934 75.867 192.02 75.953 192.02 76.126 C 192.02 76.299 191.934 76.386 191.763 76.386 L 189.975 76.386 L 187.929 76.386 L 187.929 76.386 C 187.759 76.386 187.674 76.299 187.674 76.126 C 187.674 75.953 187.759 75.867 187.929 75.867 C 188.781 75.867 189.208 75.694 189.208 75.347 C 189.208 75.347 189.122 74.394 188.952 72.488 L 184.863 72.488 L 183.585 74.567 C 183.415 74.913 183.329 75.174 183.329 75.347 C 183.329 75.694 183.585 75.867 184.097 75.867 C 184.267 75.867 184.352 75.953 184.352 76.126 C 184.352 76.299 184.267 76.386 184.097 76.386 L 182.563 76.386 L 181.03 76.386 L 181.03 76.386 C 180.859 76.386 180.774 76.299 180.774 76.126 C 180.774 75.953 180.859 75.867 181.03 75.867 L 181.285 75.867 C 181.966 75.867 182.477 75.606 182.818 75.087 C 182.989 74.913 183.074 74.74 183.074 74.567 Z M 185.119 71.968 L 188.952 71.968 L 188.44 66.512 L 185.119 71.968 Z"/>
  <path fill="#000000" fill-opacity="1" stroke-width="1.33333" stroke-linejoin="round" d="M 97.592 215.142 L 99.892 206.305 C 99.892 206.132 99.892 205.959 99.892 205.786 C 99.892 205.786 99.806 205.7 99.636 205.526 L 99.636 205.526 C 99.636 205.526 99.552 205.526 99.381 205.526 C 99.211 205.526 99.04 205.526 98.869 205.526 C 98.528 205.526 98.358 205.526 98.358 205.526 C 98.358 205.18 98.443 205.007 98.614 205.007 L 98.869 205.007 L 104.236 205.007 C 105.599 205.007 106.537 205.439 107.048 206.305 C 107.218 206.652 107.303 206.998 107.303 207.346 C 107.303 208.212 106.878 208.991 106.026 209.684 C 106.026 209.684 105.94 209.684 105.77 209.684 C 105.258 210.031 104.663 210.291 103.981 210.464 C 105.174 210.638 105.94 211.07 106.281 211.763 C 106.451 212.109 106.537 212.456 106.537 212.802 C 106.537 213.669 106.11 214.449 105.258 215.142 L 105.258 215.142 C 104.407 216.008 103.3 216.44 101.937 216.44 L 96.058 216.44 C 95.888 216.44 95.802 216.354 95.802 216.181 C 95.802 216.008 95.888 215.921 96.058 215.921 L 96.058 215.921 C 96.91 215.921 97.335 215.835 97.335 215.661 C 97.506 215.661 97.592 215.488 97.592 215.142 Z M 100.147 210.464 L 102.448 210.464 C 103.641 210.464 104.577 210.031 105.258 209.164 C 105.77 208.645 106.026 208.039 106.026 207.346 C 106.026 206.479 105.685 205.959 105.004 205.786 C 104.663 205.612 104.407 205.526 104.236 205.526 L 101.937 205.526 C 101.596 205.526 101.426 205.612 101.426 205.786 L 101.169 205.786 L 101.169 205.786 C 101.169 205.786 101.169 205.959 101.169 206.305 M 99.381 215.921 L 101.681 215.921 C 102.703 215.921 103.555 215.488 104.236 214.622 C 104.747 214.102 105.004 213.409 105.004 212.543 C 105.004 211.85 104.747 211.33 104.236 210.984 C 103.895 210.811 103.555 210.724 103.214 210.724 L 100.147 210.724 L 98.869 215.401 C 98.869 215.574 98.869 215.661 98.869 215.661 C 98.869 215.835 98.869 215.921 98.869 215.921 L 99.125 215.921 C 99.125 215.921 99.211 215.921 99.381 215.921 Z"/>
  <path fill="#000000" fill-opacity="1" stroke-width="1.33333" stroke-linejoin="round" d="M 302.978 205.007 L 301.956 209.164 C 301.785 209.338 301.701 209.425 301.701 209.425 L 301.444 209.425 C 301.274 209.425 301.19 209.338 301.19 209.164 L 301.444 208.385 L 301.444 208.385 C 301.444 206.998 301.019 206.046 300.167 205.526 L 300.167 205.526 C 299.656 205.353 299.145 205.266 298.634 205.266 C 297.612 205.266 296.589 205.7 295.567 206.566 C 295.226 206.739 294.97 206.998 294.8 207.346 C 293.778 208.559 293.096 210.118 292.755 212.023 C 292.755 212.37 292.755 212.629 292.755 212.802 C 292.755 214.362 293.351 215.401 294.545 215.921 C 294.886 216.094 295.397 216.181 296.078 216.181 C 297.101 216.181 298.037 215.835 298.889 215.142 C 299.741 214.449 300.338 213.583 300.678 212.543 C 300.678 212.37 300.763 212.283 300.933 212.283 C 300.933 212.283 300.933 212.37 300.933 212.543 C 300.933 212.716 300.849 213.063 300.678 213.583 C 300.338 214.276 299.827 214.881 299.145 215.401 C 298.123 216.267 297.015 216.701 295.822 216.701 C 294.289 216.701 293.096 216.267 292.244 215.401 C 291.563 214.535 291.222 213.495 291.222 212.283 C 291.222 210.55 291.818 208.991 293.01 207.605 C 294.204 206.219 295.481 205.353 296.844 205.007 C 297.526 204.833 298.123 204.746 298.634 204.746 C 299.827 204.746 300.678 205.266 301.19 206.305 L 302.467 205.007 C 302.637 204.833 302.723 204.746 302.723 204.746 C 302.893 204.746 302.978 204.833 302.978 205.007 Z"/>
</svg>