<?xml version="1.0" encoding="utf-8"?>
<svg viewBox="0 0 500 500" xmlns="http://www.w3.org/2000/svg">
  <rect x="130.459" y="59.455" fill="#FFFFFF" fill-opacity="1" stroke-linejoin="round" width="272.06" height="198.395"/>
  <line fill="none" stroke-width="1.33333" stroke-linejoin="round" stroke="#000000" stroke-opacity="1" x1="262.786" y1="77.033" x2="189.398" y2="234.634"/>
  <line fill="none" stroke-width="1.33333" stroke-linejoin="round" stroke="#000000" stroke-opacity="1" x1="262.786" y1="172.968" x2="273.541" y2="234.634"/>
  <line fill="none" stroke-width="1.33333" stroke-linejoin="round" stroke="#000000" stroke-opacity="1" x1="262.786" y1="77.033" x2="262.786" y2="172.968"/>
  <path fill="#000000" fill-opacity="1" stroke-linejoin="round" d="M 296.208 233.967 L 308.208 233.967 L 308.208 235.3 L 296.208 235.3 L 296.208 233.967 Z M 318.875 233.967 L 330.875 233.967 L 330.875 235.3 L 318.875 235.3 L 318.875 233.967 Z M 273.541 233.967 L 285.541 233.967 L 285.541 235.3 L 273.541 235.3 L 273.541 233.967 Z"/>
  <line fill="none" stroke-width="1.33333" stroke-linejoin="round" stroke="#000000" stroke-opacity="1" x1="262.786" y1="172.968" x2="313.825" y2="186.638"/>
  <line fill="none" stroke-width="1.33333" stroke-linejoin="round" stroke="#000000" stroke-opacity="1" x1="262.786" y1="77.033" x2="313.825" y2="186.638"/>
  <line fill="none" stroke-width="1.33333" stroke-linejoin="round" stroke="#000000" stroke-opacity="1" x1="226.092" y1="155.833" x2="262.786" y2="172.968"/>
  <line fill="none" stroke-width="1.33333" stroke-linejoin="round" stroke="#000000" stroke-opacity="1" x1="313.825" y1="186.638" x2="273.541" y2="234.634"/>
  <line fill="none" stroke-width="1.33333" stroke-linejoin="round" stroke="#000000" stroke-opacity="1" x1="189.398" y1="234.634" x2="273.541" y2="234.634"/>
  <path fill="#000000" fill-opacity="1" stroke-linejoin="round" d="M 323.998 206.904 L 329.064 217.783 L 327.855 218.346 L 322.79 207.467 L 323.998 206.904 Z M 333.567 227.452 L 336.78 234.352 L 335.571 234.915 L 332.358 228.015 L 333.567 227.452 Z M 314.43 186.356 L 319.495 197.235 L 318.287 197.798 L 313.221 186.919 L 314.43 186.356 Z"/>
  <path fill="#000000" fill-opacity="1" stroke-width="1.33333" stroke-linejoin="round" d="M 261.91 73.614 L 265.121 68.301 C 265.121 68.208 265.168 68.162 265.261 68.162 C 265.354 68.162 265.4 68.208 265.4 68.301 C 265.494 68.301 265.54 68.348 265.54 68.441 L 266.098 74.033 C 266.098 74.126 266.098 74.219 266.098 74.313 L 266.098 74.313 C 266.191 74.313 266.378 74.313 266.657 74.313 C 266.75 74.313 266.796 74.359 266.796 74.452 C 266.796 74.546 266.75 74.592 266.657 74.592 L 265.68 74.592 L 264.563 74.592 L 264.563 74.592 C 264.47 74.592 264.423 74.546 264.423 74.452 C 264.423 74.359 264.47 74.313 264.563 74.313 C 265.028 74.313 265.261 74.219 265.261 74.033 C 265.261 74.033 265.214 73.52 265.121 72.495 L 262.888 72.495 L 262.19 73.614 C 262.097 73.8 262.05 73.94 262.05 74.033 C 262.05 74.219 262.19 74.313 262.469 74.313 C 262.562 74.313 262.608 74.359 262.608 74.452 C 262.608 74.546 262.562 74.592 262.469 74.592 L 261.631 74.592 L 260.794 74.592 L 260.794 74.592 C 260.701 74.592 260.654 74.546 260.654 74.452 C 260.654 74.359 260.701 74.313 260.794 74.313 L 260.933 74.313 C 261.305 74.313 261.585 74.173 261.771 73.893 C 261.864 73.8 261.91 73.707 261.91 73.614 Z M 263.027 72.216 L 265.121 72.216 L 264.842 69.28 L 263.027 72.216 Z"/>
  <path fill="#000000" fill-opacity="1" stroke-width="1.33333" stroke-linejoin="round" d="M 218.98 156.298 L 220.236 151.545 C 220.236 151.452 220.236 151.359 220.236 151.266 C 220.236 151.266 220.19 151.219 220.096 151.126 L 220.096 151.126 C 219.91 151.126 219.771 151.126 219.678 151.126 C 219.492 151.126 219.398 151.126 219.398 151.126 C 219.398 150.939 219.445 150.846 219.538 150.846 L 219.678 150.846 L 222.609 150.846 C 223.447 150.846 224.052 151.172 224.424 151.825 C 224.61 152.198 224.703 152.617 224.703 153.083 C 224.703 154.015 224.424 154.854 223.866 155.599 C 223.307 156.252 222.656 156.671 221.911 156.857 C 221.632 156.951 221.399 156.997 221.213 156.997 L 218.142 156.997 C 218.049 156.997 218.002 156.951 218.002 156.857 C 218.002 156.764 218.049 156.718 218.142 156.718 L 218.142 156.718 C 218.607 156.718 218.84 156.671 218.84 156.578 C 218.933 156.578 218.98 156.485 218.98 156.298 Z M 220.934 151.545 L 219.678 156.438 C 219.678 156.531 219.678 156.578 219.678 156.578 C 219.678 156.671 219.678 156.718 219.678 156.718 L 219.817 156.718 C 219.817 156.718 219.864 156.718 219.957 156.718 L 220.934 156.718 C 221.679 156.718 222.33 156.438 222.888 155.879 C 222.982 155.786 223.028 155.739 223.028 155.739 C 223.493 155.087 223.819 154.248 224.005 153.223 C 224.005 153.036 224.005 152.896 224.005 152.803 C 224.005 152.058 223.68 151.545 223.028 151.266 C 222.842 151.172 222.609 151.126 222.33 151.126 L 221.353 151.126 C 221.167 151.126 221.074 151.172 221.074 151.266 L 221.074 151.266 C 220.981 151.266 220.934 151.359 220.934 151.545 Z"/>
  <path fill="#000000" fill-opacity="1" stroke-width="1.33333" stroke-linejoin="round" d="M 261.293 176.156 L 261.293 176.156 C 261.293 177.088 260.968 177.927 260.316 178.672 C 259.758 179.418 259.06 179.93 258.222 180.21 C 257.943 180.21 257.71 180.21 257.524 180.21 C 256.78 180.21 256.175 179.977 255.709 179.511 C 255.337 179.045 255.151 178.486 255.151 177.833 C 255.151 176.995 255.477 176.156 256.128 175.317 C 256.686 174.571 257.384 174.105 258.222 173.919 C 258.501 173.826 258.78 173.779 259.06 173.779 C 259.804 173.779 260.409 174.059 260.874 174.618 C 261.154 174.991 261.293 175.503 261.293 176.156 Z M 257.524 180.07 L 257.524 180.07 C 258.082 180.07 258.594 179.79 259.06 179.231 C 259.246 179.138 259.385 179.045 259.478 178.952 C 260.037 178.206 260.363 177.321 260.456 176.296 C 260.549 176.109 260.595 175.969 260.595 175.876 C 260.595 175.037 260.316 174.478 259.758 174.199 C 259.478 174.012 259.246 173.919 259.06 173.919 C 258.501 173.919 257.943 174.199 257.384 174.758 C 257.198 174.944 257.012 175.131 256.826 175.317 C 256.361 176.063 256.082 176.901 255.988 177.833 C 255.988 177.927 255.988 178.02 255.988 178.113 C 255.988 178.859 256.221 179.418 256.686 179.79 C 256.966 179.977 257.245 180.07 257.524 180.07 Z"/>
  <path fill="#000000" fill-opacity="1" stroke-width="1.33333" stroke-linejoin="round" d="M 319.925 184.198 L 319.367 186.434 C 319.367 186.528 319.367 186.621 319.367 186.714 C 319.367 186.807 319.414 186.854 319.507 186.854 C 319.507 186.854 319.553 186.854 319.646 186.854 C 319.832 186.854 320.018 186.854 320.205 186.854 C 320.298 186.854 320.344 186.854 320.344 186.854 L 320.484 186.994 C 320.484 187.087 320.391 187.133 320.205 187.133 L 318.948 187.133 L 317.692 187.133 L 317.692 187.133 C 317.599 187.133 317.552 187.087 317.552 186.994 C 317.552 186.9 317.599 186.854 317.692 186.854 L 317.831 186.854 C 318.204 186.854 318.436 186.807 318.529 186.714 C 318.622 186.714 318.669 186.621 318.669 186.434 L 319.786 181.681 C 319.879 181.588 319.925 181.542 319.925 181.542 C 319.925 181.448 319.786 181.355 319.507 181.262 L 319.367 181.262 C 319.181 181.262 319.088 181.262 319.088 181.262 C 319.088 181.169 319.134 181.076 319.227 180.982 L 319.367 180.982 L 323.695 180.982 C 323.881 180.982 323.974 181.029 323.974 181.122 L 323.974 181.122 C 323.974 181.122 323.974 181.169 323.974 181.262 L 323.834 182.8 C 323.741 182.986 323.695 183.079 323.695 183.079 C 323.602 183.079 323.555 183.033 323.555 182.94 C 323.555 182.94 323.555 182.893 323.555 182.8 C 323.555 182.613 323.555 182.474 323.555 182.38 C 323.555 181.914 323.462 181.635 323.276 181.542 L 323.276 181.542 C 323.09 181.355 322.764 181.262 322.299 181.262 L 321.042 181.262 C 320.856 181.262 320.763 181.309 320.763 181.402 L 320.763 181.402 C 320.67 181.402 320.623 181.448 320.623 181.542 L 320.623 181.542 C 320.623 181.542 320.623 181.588 320.623 181.681 L 320.065 183.918 L 320.903 183.918 C 321.275 183.918 321.554 183.825 321.74 183.638 L 321.74 183.638 C 321.833 183.545 321.926 183.359 322.019 183.079 C 322.019 182.986 322.066 182.94 322.159 182.94 C 322.252 182.94 322.299 182.94 322.299 182.94 C 322.299 183.033 322.299 183.079 322.299 183.079 L 321.74 185.036 C 321.647 185.223 321.601 185.316 321.601 185.316 C 321.508 185.316 321.461 185.269 321.461 185.176 C 321.461 185.176 321.461 185.13 321.461 185.036 C 321.554 184.85 321.601 184.71 321.601 184.617 C 321.601 184.431 321.554 184.337 321.461 184.337 L 321.461 184.337 C 321.275 184.244 321.089 184.198 320.903 184.198 L 319.925 184.198 Z"/>
  <path fill="#000000" fill-opacity="1" stroke-width="1.33333" stroke-linejoin="round" d="M 185.593 242.47 L 186.85 237.717 C 186.85 237.624 186.85 237.53 186.85 237.437 C 186.85 237.437 186.803 237.391 186.71 237.297 L 186.71 237.297 C 186.71 237.297 186.663 237.297 186.57 237.297 C 186.477 237.297 186.384 237.297 186.291 237.297 C 186.105 237.297 186.012 237.297 186.012 237.297 C 186.012 237.111 186.058 237.018 186.152 237.018 L 186.291 237.018 L 189.223 237.018 C 189.967 237.018 190.479 237.251 190.758 237.717 C 190.851 237.903 190.898 238.09 190.898 238.276 C 190.898 238.742 190.665 239.161 190.2 239.534 C 190.2 239.534 190.153 239.534 190.06 239.534 C 189.781 239.72 189.455 239.86 189.083 239.953 C 189.735 240.047 190.153 240.28 190.34 240.652 C 190.433 240.839 190.479 241.025 190.479 241.212 C 190.479 241.678 190.246 242.097 189.781 242.47 L 189.781 242.47 C 189.316 242.936 188.711 243.169 187.966 243.169 L 184.756 243.169 C 184.662 243.169 184.616 243.122 184.616 243.029 C 184.616 242.936 184.662 242.889 184.756 242.889 L 184.756 242.889 C 185.221 242.889 185.454 242.843 185.454 242.749 C 185.547 242.749 185.593 242.656 185.593 242.47 Z M 186.989 239.953 L 188.246 239.953 C 188.897 239.953 189.409 239.72 189.781 239.254 C 190.06 238.975 190.2 238.649 190.2 238.276 C 190.2 237.81 190.014 237.53 189.642 237.437 C 189.455 237.344 189.316 237.297 189.223 237.297 L 187.966 237.297 C 187.78 237.297 187.687 237.344 187.687 237.437 L 187.548 237.437 L 187.548 237.437 C 187.548 237.437 187.548 237.53 187.548 237.717 M 186.57 242.889 L 187.827 242.889 C 188.385 242.889 188.85 242.656 189.223 242.19 C 189.502 241.911 189.642 241.538 189.642 241.072 C 189.642 240.699 189.502 240.419 189.223 240.233 C 189.037 240.14 188.85 240.093 188.664 240.093 L 186.989 240.093 L 186.291 242.61 C 186.291 242.703 186.291 242.749 186.291 242.749 C 186.291 242.843 186.291 242.889 186.291 242.889 L 186.431 242.889 C 186.431 242.889 186.477 242.889 186.57 242.889 Z"/>
  <path fill="#000000" fill-opacity="1" stroke-width="1.33333" stroke-linejoin="round" d="M 274.651 242.014 L 273.813 243.971 C 273.813 244.064 273.813 244.111 273.813 244.111 L 273.674 244.111 C 273.674 244.111 273.627 244.111 273.534 244.111 L 268.927 244.111 C 268.834 244.111 268.741 244.064 268.648 243.971 C 268.648 243.878 268.695 243.831 268.788 243.831 L 268.927 243.831 C 269.299 243.831 269.532 243.784 269.625 243.691 C 269.718 243.691 269.765 243.598 269.765 243.412 L 270.882 238.659 C 270.975 238.565 271.021 238.519 271.021 238.519 C 271.021 238.426 270.882 238.332 270.602 238.239 L 270.463 238.239 C 270.277 238.239 270.184 238.239 270.184 238.239 C 270.184 238.146 270.23 238.053 270.323 237.96 L 270.463 237.96 L 274.93 237.96 C 275.116 237.96 275.209 238.006 275.209 238.099 L 275.209 238.099 C 275.209 238.099 275.209 238.146 275.209 238.239 L 275.07 239.777 C 274.977 239.963 274.93 240.056 274.93 240.056 C 274.837 240.056 274.79 240.01 274.79 239.917 L 274.79 239.777 L 274.79 239.777 C 274.79 239.59 274.79 239.451 274.79 239.357 C 274.79 238.892 274.697 238.612 274.511 238.519 C 274.325 238.332 273.953 238.239 273.394 238.239 L 272.138 238.239 C 271.952 238.239 271.859 238.286 271.859 238.379 L 271.859 238.379 C 271.766 238.379 271.719 238.426 271.719 238.519 L 271.719 238.519 C 271.719 238.519 271.719 238.565 271.719 238.659 L 271.161 240.755 L 271.998 240.755 C 272.464 240.755 272.789 240.662 272.976 240.476 C 273.069 240.383 273.162 240.196 273.255 239.917 C 273.255 239.823 273.255 239.777 273.255 239.777 C 273.348 239.777 273.394 239.823 273.394 239.917 L 272.976 242.014 C 272.883 242.107 272.836 242.153 272.836 242.153 C 272.743 242.153 272.696 242.107 272.696 242.014 C 272.696 242.014 272.696 241.967 272.696 241.874 C 272.696 241.781 272.696 241.641 272.696 241.454 C 272.696 241.361 272.65 241.268 272.557 241.175 C 272.464 241.082 272.278 241.035 271.998 241.035 L 271.161 241.035 L 270.463 243.551 C 270.463 243.645 270.463 243.691 270.463 243.691 C 270.463 243.784 270.509 243.831 270.602 243.831 L 270.602 243.831 C 270.602 243.831 270.649 243.831 270.742 243.831 L 272.138 243.831 C 272.789 243.831 273.301 243.645 273.674 243.272 C 273.953 243.085 274.185 242.713 274.372 242.153 C 274.465 242.06 274.511 241.967 274.511 241.874 C 274.511 241.781 274.558 241.734 274.651 241.734 C 274.744 241.734 274.79 241.781 274.79 241.874 C 274.79 241.874 274.744 241.92 274.651 242.014 Z"/>
  <path fill="#000000" fill-opacity="1" stroke-width="1.33333" stroke-linejoin="round" d="M 341.042 238.43 L 340.483 240.667 C 340.39 240.76 340.344 240.807 340.344 240.807 L 340.204 240.807 C 340.111 240.807 340.065 240.76 340.065 240.667 L 340.204 240.248 L 340.204 240.248 C 340.204 239.502 339.971 238.99 339.506 238.71 L 339.506 238.71 C 339.227 238.617 338.948 238.57 338.669 238.57 C 338.11 238.57 337.552 238.803 336.993 239.269 C 336.807 239.362 336.668 239.502 336.575 239.689 C 336.016 240.341 335.644 241.18 335.458 242.205 C 335.458 242.391 335.458 242.531 335.458 242.624 C 335.458 243.463 335.784 244.022 336.435 244.302 C 336.621 244.395 336.9 244.442 337.273 244.442 C 337.831 244.442 338.343 244.255 338.808 243.882 C 339.273 243.51 339.599 243.044 339.785 242.484 C 339.785 242.391 339.832 242.345 339.925 242.345 C 339.925 242.345 339.925 242.391 339.925 242.484 C 339.925 242.578 339.878 242.764 339.785 243.044 C 339.599 243.416 339.32 243.743 338.948 244.022 C 338.389 244.488 337.784 244.721 337.133 244.721 C 336.295 244.721 335.644 244.488 335.179 244.022 C 334.806 243.556 334.62 242.997 334.62 242.345 C 334.62 241.413 334.946 240.574 335.597 239.828 C 336.249 239.083 336.947 238.617 337.691 238.43 C 338.064 238.337 338.389 238.291 338.669 238.291 C 339.32 238.291 339.785 238.57 340.065 239.129 L 340.763 238.43 C 340.856 238.337 340.902 238.291 340.902 238.291 C 340.995 238.291 341.042 238.337 341.042 238.43 Z"/>
</svg>