<?xml version="1.0" encoding="utf-8"?>
<svg width="450.33" height="230" viewBox="0 0 450 230 " preserveAspectRatio="xMinYMin meet" xmlns="http://www.w3.org/2000/svg">
  <line fill="none" stroke-width="1.33333" stroke-linejoin="round" stroke="#000000" stroke-opacity="1" x1="189.4" y1="19.34" x2="99.814" y2="208.266"/>
  <line fill="none" stroke-width="1.33333" stroke-linejoin="round" stroke="#000000" stroke-opacity="1" x1="189.4" y1="134.344" x2="202.529" y2="208.266"/>
  <line fill="none" stroke-width="1.33333" stroke-linejoin="round" stroke="#000000" stroke-opacity="1" x1="189.4" y1="19.34" x2="189.4" y2="134.344"/>
  <path fill="#000000" fill-opacity="1" stroke-linejoin="round" d="M 230.199 207.466 L 244.848 207.466 L 244.848 209.064 L 230.199 209.064 L 230.199 207.466 Z M 257.869 207.466 L 272.518 207.466 L 272.518 209.064 L 257.869 209.064 L 257.869 207.466 Z M 202.529 207.466 L 217.178 207.466 L 217.178 209.064 L 202.529 209.064 L 202.529 207.466 Z"/>
  <line fill="none" stroke-width="1.33333" stroke-linejoin="round" stroke="#000000" stroke-opacity="1" x1="189.4" y1="134.344" x2="251.705" y2="150.731"/>
  <line fill="none" stroke-width="1.33333" stroke-linejoin="round" stroke="#000000" stroke-opacity="1" x1="189.4" y1="19.34" x2="251.705" y2="150.731"/>
  <line fill="none" stroke-width="1.33333" stroke-linejoin="round" stroke="#000000" stroke-opacity="1" x1="144.607" y1="113.803" x2="189.4" y2="134.344"/>
  <line fill="none" stroke-width="1.33333" stroke-linejoin="round" stroke="#000000" stroke-opacity="1" x1="251.705" y1="150.731" x2="202.529" y2="208.266"/>
  <line fill="none" stroke-width="1.33333" stroke-linejoin="round" stroke="#000000" stroke-opacity="1" x1="99.814" y1="208.266" x2="202.529" y2="208.266"/>
  <path fill="#000000" fill-opacity="1" stroke-linejoin="round" d="M 264.123 175.025 L 270.307 188.066 L 268.831 188.741 L 262.648 175.7 L 264.123 175.025 Z M 275.804 199.657 L 279.726 207.928 L 278.25 208.603 L 274.328 200.332 L 275.804 199.657 Z M 252.443 150.393 L 258.626 163.434 L 257.151 164.109 L 250.967 151.068 L 252.443 150.393 Z"/>
  <path fill="#000000" fill-opacity="1" stroke-width="1.33333" stroke-linejoin="round" d="M 188.331 15.242 L 192.251 8.874 C 192.251 8.762 192.308 8.706 192.422 8.706 C 192.535 8.706 192.591 8.762 192.591 8.874 C 192.706 8.874 192.762 8.93 192.762 9.042 L 193.443 15.745 C 193.443 15.857 193.443 15.968 193.443 16.08 L 193.443 16.08 C 193.557 16.08 193.785 16.08 194.126 16.08 C 194.239 16.08 194.296 16.136 194.296 16.247 C 194.296 16.359 194.239 16.415 194.126 16.415 L 192.933 16.415 L 191.57 16.415 L 191.57 16.415 C 191.456 16.415 191.399 16.359 191.399 16.247 C 191.399 16.136 191.456 16.08 191.57 16.08 C 192.137 16.08 192.422 15.968 192.422 15.745 C 192.422 15.745 192.364 15.13 192.251 13.901 L 189.525 13.901 L 188.673 15.242 C 188.559 15.465 188.502 15.632 188.502 15.745 C 188.502 15.968 188.673 16.08 189.013 16.08 C 189.127 16.08 189.183 16.136 189.183 16.247 C 189.183 16.359 189.127 16.415 189.013 16.415 L 187.991 16.415 L 186.969 16.415 L 186.969 16.415 C 186.855 16.415 186.798 16.359 186.798 16.247 C 186.798 16.136 186.855 16.08 186.969 16.08 L 187.138 16.08 C 187.593 16.08 187.934 15.912 188.161 15.577 C 188.275 15.465 188.331 15.353 188.331 15.242 Z M 189.695 13.566 L 192.251 13.566 L 191.91 10.047 L 189.695 13.566 Z"/>
  <path fill="#000000" fill-opacity="1" stroke-width="1.33333" stroke-linejoin="round" d="M 135.926 114.361 L 137.459 108.663 C 137.459 108.55 137.459 108.439 137.459 108.327 C 137.459 108.327 137.403 108.271 137.288 108.159 L 137.288 108.159 C 137.061 108.159 136.891 108.159 136.778 108.159 C 136.551 108.159 136.436 108.159 136.436 108.159 C 136.436 107.936 136.493 107.825 136.607 107.825 L 136.778 107.825 L 140.356 107.825 C 141.379 107.825 142.117 108.216 142.571 108.997 C 142.798 109.444 142.912 109.947 142.912 110.505 C 142.912 111.623 142.571 112.628 141.89 113.523 C 141.208 114.304 140.413 114.806 139.504 115.031 C 139.163 115.142 138.879 115.198 138.652 115.198 L 134.903 115.198 C 134.789 115.198 134.732 115.142 134.732 115.031 C 134.732 114.919 134.789 114.863 134.903 114.863 L 134.903 114.863 C 135.47 114.863 135.755 114.806 135.755 114.695 C 135.868 114.695 135.926 114.583 135.926 114.361 Z M 138.311 108.663 L 136.778 114.527 C 136.778 114.64 136.778 114.695 136.778 114.695 C 136.778 114.806 136.778 114.863 136.778 114.863 L 136.947 114.863 C 136.947 114.863 137.005 114.863 137.118 114.863 L 138.311 114.863 C 139.22 114.863 140.015 114.527 140.696 113.857 C 140.811 113.746 140.867 113.69 140.867 113.69 C 141.435 112.908 141.833 111.902 142.06 110.673 C 142.06 110.45 142.06 110.282 142.06 110.171 C 142.06 109.277 141.663 108.663 140.867 108.327 C 140.64 108.216 140.356 108.159 140.015 108.159 L 138.822 108.159 C 138.595 108.159 138.482 108.216 138.482 108.327 L 138.482 108.327 C 138.368 108.327 138.311 108.439 138.311 108.663 Z"/>
  <path fill="#000000" fill-opacity="1" stroke-width="1.33333" stroke-linejoin="round" d="M 187.578 138.165 L 187.578 138.165 C 187.578 139.283 187.181 140.288 186.385 141.181 C 185.704 142.076 184.852 142.689 183.829 143.025 C 183.489 143.025 183.204 143.025 182.977 143.025 C 182.069 143.025 181.33 142.746 180.761 142.187 C 180.307 141.629 180.08 140.958 180.08 140.176 C 180.08 139.171 180.478 138.165 181.273 137.16 C 181.954 136.265 182.806 135.707 183.829 135.484 C 184.17 135.372 184.51 135.316 184.852 135.316 C 185.76 135.316 186.499 135.652 187.066 136.322 C 187.408 136.769 187.578 137.383 187.578 138.165 Z M 182.977 142.857 L 182.977 142.857 C 183.658 142.857 184.283 142.522 184.852 141.852 C 185.079 141.74 185.249 141.629 185.362 141.517 C 186.045 140.623 186.443 139.562 186.556 138.333 C 186.67 138.109 186.726 137.941 186.726 137.83 C 186.726 136.824 186.385 136.154 185.704 135.819 C 185.362 135.595 185.079 135.484 184.852 135.484 C 184.17 135.484 183.489 135.819 182.806 136.49 C 182.579 136.712 182.352 136.937 182.125 137.16 C 181.557 138.054 181.217 139.058 181.102 140.176 C 181.102 140.288 181.102 140.4 181.102 140.511 C 181.102 141.406 181.386 142.076 181.954 142.522 C 182.296 142.746 182.636 142.857 182.977 142.857 Z"/>
  <path fill="#000000" fill-opacity="1" stroke-width="1.33333" stroke-linejoin="round" d="M 259.151 147.806 L 258.47 150.486 C 258.47 150.599 258.47 150.71 258.47 150.822 C 258.47 150.933 258.527 150.99 258.641 150.99 C 258.641 150.99 258.697 150.99 258.81 150.99 C 259.037 150.99 259.264 150.99 259.493 150.99 C 259.606 150.99 259.662 150.99 259.662 150.99 L 259.833 151.157 C 259.833 151.269 259.72 151.324 259.493 151.324 L 257.958 151.324 L 256.425 151.324 L 256.425 151.324 C 256.312 151.324 256.254 151.269 256.254 151.157 C 256.254 151.045 256.312 150.99 256.425 150.99 L 256.595 150.99 C 257.05 150.99 257.333 150.933 257.447 150.822 C 257.56 150.822 257.618 150.71 257.618 150.486 L 258.981 144.788 C 259.095 144.677 259.151 144.622 259.151 144.622 C 259.151 144.509 258.981 144.398 258.641 144.286 L 258.47 144.286 C 258.243 144.286 258.129 144.286 258.129 144.286 C 258.129 144.175 258.185 144.063 258.299 143.951 L 258.47 143.951 L 263.753 143.951 C 263.98 143.951 264.094 144.007 264.094 144.118 L 264.094 144.118 C 264.094 144.118 264.094 144.175 264.094 144.286 L 263.923 146.13 C 263.809 146.353 263.753 146.464 263.753 146.464 C 263.64 146.464 263.582 146.409 263.582 146.298 C 263.582 146.298 263.582 146.241 263.582 146.13 C 263.582 145.906 263.582 145.739 263.582 145.626 C 263.582 145.068 263.469 144.733 263.242 144.622 L 263.242 144.622 C 263.015 144.398 262.617 144.286 262.049 144.286 L 260.515 144.286 C 260.287 144.286 260.174 144.343 260.174 144.454 L 260.174 144.454 C 260.06 144.454 260.003 144.509 260.003 144.622 L 260.003 144.622 C 260.003 144.622 260.003 144.677 260.003 144.788 L 259.322 147.47 L 260.345 147.47 C 260.799 147.47 261.14 147.359 261.367 147.134 L 261.367 147.134 C 261.48 147.023 261.594 146.8 261.707 146.464 C 261.707 146.353 261.765 146.298 261.878 146.298 C 261.992 146.298 262.049 146.298 262.049 146.298 C 262.049 146.409 262.049 146.464 262.049 146.464 L 261.367 148.81 C 261.253 149.034 261.197 149.146 261.197 149.146 C 261.083 149.146 261.026 149.09 261.026 148.978 C 261.026 148.978 261.026 148.923 261.026 148.81 C 261.14 148.587 261.197 148.419 261.197 148.308 C 261.197 148.085 261.14 147.972 261.026 147.972 L 261.026 147.972 C 260.799 147.861 260.572 147.806 260.345 147.806 L 259.151 147.806 Z"/>
  <path fill="#000000" fill-opacity="1" stroke-width="1.33333" stroke-linejoin="round" d="M 95.17 217.66 L 96.704 211.962 C 96.704 211.85 96.704 211.738 96.704 211.626 C 96.704 211.626 96.647 211.571 96.533 211.458 L 96.533 211.458 C 96.533 211.458 96.476 211.458 96.362 211.458 C 96.249 211.458 96.135 211.458 96.022 211.458 C 95.795 211.458 95.681 211.458 95.681 211.458 C 95.681 211.235 95.737 211.124 95.852 211.124 L 96.022 211.124 L 99.601 211.124 C 100.509 211.124 101.134 211.403 101.475 211.962 C 101.588 212.185 101.646 212.409 101.646 212.632 C 101.646 213.191 101.361 213.693 100.793 214.14 C 100.793 214.14 100.736 214.14 100.623 214.14 C 100.282 214.363 99.884 214.531 99.43 214.642 C 100.226 214.755 100.736 215.034 100.964 215.48 C 101.078 215.704 101.134 215.927 101.134 216.151 C 101.134 216.71 100.85 217.212 100.282 217.66 L 100.282 217.66 C 99.714 218.218 98.976 218.497 98.066 218.497 L 94.148 218.497 C 94.033 218.497 93.977 218.441 93.977 218.33 C 93.977 218.218 94.033 218.162 94.148 218.162 L 94.148 218.162 C 94.716 218.162 95 218.107 95 217.994 C 95.113 217.994 95.17 217.882 95.17 217.66 Z M 96.874 214.642 L 98.408 214.642 C 99.203 214.642 99.828 214.363 100.282 213.804 C 100.623 213.47 100.793 213.079 100.793 212.632 C 100.793 212.073 100.566 211.738 100.112 211.626 C 99.884 211.515 99.714 211.458 99.601 211.458 L 98.066 211.458 C 97.839 211.458 97.726 211.515 97.726 211.626 L 97.556 211.626 L 97.556 211.626 C 97.556 211.626 97.556 211.738 97.556 211.962 M 96.362 218.162 L 97.897 218.162 C 98.578 218.162 99.146 217.882 99.601 217.324 C 99.941 216.989 100.112 216.542 100.112 215.984 C 100.112 215.537 99.941 215.201 99.601 214.978 C 99.374 214.866 99.146 214.81 98.918 214.81 L 96.874 214.81 L 96.022 217.827 C 96.022 217.939 96.022 217.994 96.022 217.994 C 96.022 218.107 96.022 218.162 96.022 218.162 L 96.193 218.162 C 96.193 218.162 96.249 218.162 96.362 218.162 Z"/>
  <path fill="#000000" fill-opacity="1" stroke-width="1.33333" stroke-linejoin="round" d="M 203.884 217.113 L 202.861 219.459 C 202.861 219.57 202.861 219.627 202.861 219.627 L 202.692 219.627 C 202.692 219.627 202.634 219.627 202.521 219.627 L 196.897 219.627 C 196.783 219.627 196.67 219.57 196.556 219.459 C 196.556 219.347 196.614 219.291 196.727 219.291 L 196.897 219.291 C 197.351 219.291 197.635 219.235 197.749 219.123 C 197.862 219.123 197.92 219.012 197.92 218.789 L 199.283 213.091 C 199.397 212.978 199.453 212.923 199.453 212.923 C 199.453 212.812 199.283 212.699 198.942 212.588 L 198.772 212.588 C 198.545 212.588 198.431 212.588 198.431 212.588 C 198.431 212.476 198.487 212.365 198.601 212.253 L 198.772 212.253 L 204.225 212.253 C 204.452 212.253 204.565 212.308 204.565 212.42 L 204.565 212.42 C 204.565 212.42 204.565 212.476 204.565 212.588 L 204.396 214.431 C 204.282 214.654 204.225 214.766 204.225 214.766 C 204.111 214.766 204.054 214.711 204.054 214.599 L 204.054 214.431 L 204.054 214.431 C 204.054 214.207 204.054 214.04 204.054 213.928 C 204.054 213.37 203.94 213.035 203.713 212.923 C 203.486 212.699 203.032 212.588 202.35 212.588 L 200.817 212.588 C 200.59 212.588 200.476 212.644 200.476 212.755 L 200.476 212.755 C 200.362 212.755 200.305 212.812 200.305 212.923 L 200.305 212.923 C 200.305 212.923 200.305 212.978 200.305 213.091 L 199.624 215.604 L 200.646 215.604 C 201.215 215.604 201.611 215.492 201.84 215.269 C 201.953 215.158 202.067 214.934 202.18 214.599 C 202.18 214.486 202.18 214.431 202.18 214.431 C 202.294 214.431 202.35 214.486 202.35 214.599 L 201.84 217.113 C 201.726 217.224 201.669 217.279 201.669 217.279 C 201.555 217.279 201.498 217.224 201.498 217.113 C 201.498 217.113 201.498 217.057 201.498 216.945 C 201.498 216.834 201.498 216.666 201.498 216.442 C 201.498 216.33 201.442 216.219 201.328 216.107 C 201.215 215.996 200.987 215.939 200.646 215.939 L 199.624 215.939 L 198.772 218.955 C 198.772 219.068 198.772 219.123 198.772 219.123 C 198.772 219.235 198.828 219.291 198.942 219.291 L 198.942 219.291 C 198.942 219.291 198.999 219.291 199.112 219.291 L 200.817 219.291 C 201.611 219.291 202.236 219.068 202.692 218.621 C 203.032 218.397 203.315 217.951 203.544 217.279 C 203.657 217.168 203.713 217.057 203.713 216.945 C 203.713 216.834 203.771 216.777 203.884 216.777 C 203.998 216.777 204.054 216.834 204.054 216.945 C 204.054 216.945 203.998 217 203.884 217.113 Z"/>
  <path fill="#000000" fill-opacity="1" stroke-width="1.33333" stroke-linejoin="round" d="M 284.929 212.817 L 284.246 215.498 C 284.133 215.61 284.077 215.666 284.077 215.666 L 283.906 215.666 C 283.792 215.666 283.736 215.61 283.736 215.498 L 283.906 214.996 L 283.906 214.996 C 283.906 214.102 283.621 213.488 283.054 213.152 L 283.054 213.152 C 282.713 213.041 282.373 212.984 282.032 212.984 C 281.35 212.984 280.669 213.264 279.986 213.822 C 279.759 213.934 279.589 214.102 279.476 214.326 C 278.794 215.107 278.339 216.113 278.112 217.342 C 278.112 217.565 278.112 217.733 278.112 217.844 C 278.112 218.85 278.51 219.52 279.305 219.856 C 279.532 219.967 279.873 220.023 280.328 220.023 C 281.009 220.023 281.634 219.799 282.202 219.352 C 282.769 218.906 283.167 218.348 283.394 217.676 C 283.394 217.565 283.452 217.51 283.565 217.51 C 283.565 217.51 283.565 217.565 283.565 217.676 C 283.565 217.789 283.508 218.012 283.394 218.348 C 283.167 218.794 282.827 219.186 282.373 219.52 C 281.69 220.079 280.952 220.358 280.157 220.358 C 279.134 220.358 278.339 220.079 277.772 219.52 C 277.316 218.961 277.089 218.291 277.089 217.51 C 277.089 216.392 277.487 215.387 278.282 214.492 C 279.078 213.599 279.93 213.041 280.838 212.817 C 281.294 212.705 281.69 212.65 282.032 212.65 C 282.827 212.65 283.394 212.984 283.736 213.654 L 284.588 212.817 C 284.702 212.705 284.758 212.65 284.758 212.65 C 284.871 212.65 284.929 212.705 284.929 212.817 Z"/>
</svg>